<?xml version="1.0" encoding="UTF-8" standalone="no"?>
<!-- Created with Inkscape (http://www.inkscape.org/) -->

<svg
   xmlns:dc="http://purl.org/dc/elements/1.1/"
   xmlns:cc="http://creativecommons.org/ns#"
   xmlns:rdf="http://www.w3.org/1999/02/22-rdf-syntax-ns#"
   xmlns:svg="http://www.w3.org/2000/svg"
   xmlns="http://www.w3.org/2000/svg"
   xmlns:xlink="http://www.w3.org/1999/xlink"
   version="1.1"
   width="300"
   height="424"
   id="svg5232">
  <defs
     id="defs5234">
    <linearGradient
       id="linearGradient9927">
      <stop
         id="stop9929"
         style="stop-color:#ffffff;stop-opacity:1"
         offset="0" />
      <stop
         id="stop9931"
         style="stop-color:#ffffff;stop-opacity:0"
         offset="1" />
    </linearGradient>
    <linearGradient
       id="linearGradient9907">
      <stop
         id="stop9909"
         style="stop-color:#007ed4;stop-opacity:1"
         offset="0" />
      <stop
         id="stop9915"
         style="stop-color:#00a0ff;stop-opacity:1"
         offset="0.5" />
      <stop
         id="stop9911"
         style="stop-color:#007ed4;stop-opacity:1"
         offset="1" />
    </linearGradient>
    <linearGradient
       id="linearGradient9283">
      <stop
         id="stop9285"
         style="stop-color:#0060a1;stop-opacity:1"
         offset="0" />
      <stop
         id="stop9289"
         style="stop-color:#0060a1;stop-opacity:0.49803922"
         offset="1" />
      <stop
         id="stop9287"
         style="stop-color:#0060a1;stop-opacity:0"
         offset="1" />
    </linearGradient>
    <linearGradient
       x1="47.113476"
       y1="258.13477"
       x2="243.31206"
       y2="260.39362"
       id="linearGradient9913"
       xlink:href="#linearGradient9907"
       gradientUnits="userSpaceOnUse" />
    <linearGradient
       x1="150.59869"
       y1="229.4149"
       x2="150.59869"
       y2="231.02837"
       id="linearGradient9933"
       xlink:href="#linearGradient9927"
       gradientUnits="userSpaceOnUse" />
  </defs>
  <metadata
     id="metadata5237">
    <rdf:RDF>
      <cc:Work
         rdf:about="">
        <dc:format>image/svg+xml</dc:format>
        <dc:type
           rdf:resource="http://purl.org/dc/dcmitype/StillImage" />
        <dc:title></dc:title>
      </cc:Work>
    </rdf:RDF>
  </metadata>
  <g
     id="layer7"
     style="display:inline">
    <path
       d="M 75.634863,155.13733 8.2773726,382.53808 145.48006,296.7864 280.14195,382.53808 215.65817,155.13733"
       id="path8597"
       style="fill:url(#linearGradient9913);fill-opacity:1;stroke:#ffffff;stroke-width:3;stroke-opacity:1;display:inline" />
    <path
       d="m 145.48006,282.81205 0,-96.55004"
       id="path8606"
       style="fill:url(#linearGradient9933);fill-opacity:1;stroke:#ffffff;stroke-width:1px;stroke-linecap:butt;stroke-linejoin:miter;stroke-opacity:1;display:inline" />
  </g>
  <g
     transform="translate(0,-56)"
     id="layer5"
     style="display:inline">
    <path
       d="m 643.46716,233.56577 c 0,111.4019 -138.32409,201.71098 -308.9555,201.71098 -170.63142,0 -308.955508,-90.30908 -308.955508,-201.71098 0,-111.4019 138.324088,-201.710988 308.955508,-201.710988 170.63141,0 308.9555,90.309088 308.9555,201.710988 z"
       transform="matrix(0.29227749,0,0,0.4427163,52.229772,54.85607)"
       id="path7552"
       style="fill:#007ed4;fill-opacity:1;stroke:#ffffff;stroke-width:8.33989906;stroke-opacity:1" />
  </g>
  <g
     transform="translate(0,-56)"
     id="layer4"
     style="display:inline">
    <g
       transform="matrix(0.29712916,0,0,0.29383872,67.091744,105.9752)"
       id="g5195"
       style="fill:#ffffff;fill-opacity:1;display:inline">
      <path
         d="m 40.208584,62.939637 c 0,-1.718047 0.70518,-2.568583 2.50394,-3.020042 3.82106,-0.959026 5.91635,-5.006929 16.87288,-32.596893 13.61348,-34.2805017 12.09546,-34.1720117 25.10639,-1.794251 14.31616,35.625842 14.19435,35.436492 22.468426,34.925947 6.11654,-0.377415 6.04836,-0.08293 6.04836,-26.123168 0,-25.4464797 0.0495,-25.1965157 -5.2556,-26.5280147 -1.78255,-0.447392 -2.7444,-1.351764 -2.7444,-2.580394 0,-1.806753 1.16131,-1.891592 25.89301,-1.891592 29.49603,0 27.10699,-0.844481 27.10699,9.5817867 0,6.17019 -0.0961,6.418213 -2.48658,6.418213 -1.87272,0 -2.83028,-0.82259 -3.87882,-3.3321 -2.43471,-5.827085 -5.86035,-7.6678997 -14.26946,-7.6678997 l -7.36514,0 0,10.9999997 0,11 3.84501,0 c 4.07464,0 6.66839,-1.951441 7.3103,-5.5 0.24025,-1.328124 1.29435,-2.107418 3.13778,-2.319755 l 2.77599,-0.319755 -0.28454,10.819756 c -0.28398,10.798528 -0.28944,10.819755 -2.78454,10.819755 -1.98143,0 -2.56542,-0.56816 -2.81537,-2.739082 -0.39294,-3.412805 -3.61584,-5.760918 -7.90714,-5.760918 l -3.27749,0 0,10.80887 c 0,11.977478 0.72862,13.882344 5.5,14.378912 2.23111,0.232197 3.0819,0.888885 3.31955,2.562217 l 0.31955,2.25 -33.1391,0 -33.139106,0 0.31956,-2.25 c 0.21661,-1.525177 1.12491,-2.363013 2.81955,-2.600815 3.6381,-0.510521 4.04893,-1.93954 2.03304,-7.071594 l -1.79809,-4.57759 -9.78414,0 -9.78415,0 -1.42787,4.283621 c -1.65206,4.956171 -0.59228,7.216378 3.38365,7.216378 1.86939,0 2.37756,0.534334 2.37756,2.5 l 0,2.5 -10.5,0 c -10.40642,0 -10.5,-0.02132 -10.5,-2.391592 z m 33.83333,-20.409419 c -0.18333,-0.440557 -1.85774,-4.518651 -3.7209,-9.062432 -1.86316,-4.543781 -3.70862,-7.895826 -4.10101,-7.448989 -0.39239,0.446838 -1.95574,3.962432 -3.47411,7.812433 -1.51838,3.85 -2.98357,7.5625 -3.25599,8.25 -0.37032,0.934576 1.44527,1.25 7.19502,1.25 4.22968,0 7.54032,-0.360455 7.35699,-0.801012 z m 86.166666,20.301011 c 0,-2.100408 0.47045,-2.5 2.9433,-2.5 5.5798,0 6.05828,-2.016861 6.04305,-25.472505 -0.008,-11.565123 -0.2841,-22.036539 -0.61463,-23.269816 -0.41594,-1.551954 -1.7972,-2.5644317 -4.48634,-3.2885437 -2.82123,-0.759677 -3.88538,-1.578221 -3.88538,-2.988627 0,-2.882017 2.75896,-3.204065 24.18849,-2.823479 18.24129,0.323964 19.58852,0.481518 24.31006,2.842971 7.22115,3.611617 9.77665,7.8746777 9.30604,15.5242307 -0.68906,11.200245 -6.6164,15.566781 -22.2987,16.42695 l -10.00589,0.54882 -0.29059,8.86358 c -0.34368,10.482882 1.00078,13.636419 5.81364,13.636419 2.50875,0 2.97695,0.393191 2.97695,2.5 l 0,2.5 -17,0 -17,0 0,-2.5 z m 35.96637,-31.982608 c 5.82419,-3.011805 6.56251,-14.747472 1.24484,-19.786872 -1.90145,-1.8019537 -4.05522,-2.6680737 -7.21121,-2.8999277 l -4.5,-0.330592 -0.28078,12.2499997 -0.28078,12.250001 4.08044,0 c 2.24424,0 5.37061,-0.667175 6.94749,-1.482609 z m 16.03363,32.457857 c 0,-1.178116 0.94082,-2.384557 2.25,-2.885237 1.2375,-0.473267 3.11786,-1.823858 4.17857,-3.001313 1.06072,-1.177454 6.75947,-14.166597 12.66388,-28.864763 14.32449,-35.6586547 12.41103,-35.6694447 26.93117,0.151851 5.99174,14.781685 11.7001,27.770827 12.68523,28.864763 0.98513,1.093937 2.80365,2.376195 4.04115,2.849462 1.30918,0.50068 2.25,1.707121 2.25,2.885237 0,1.945915 -0.60351,2.024751 -15.5,2.024751 l -15.5,0 0,-2.5 c 0,-2.008266 0.49791,-2.5 2.53138,-2.5 3.51635,0 3.96672,-2.085541 1.60388,-7.427133 l -2.0228,-4.572866 -9.55623,0 c -5.25593,0 -9.56301,0.1125 -9.57129,0.25 -0.008,0.1375 -0.64045,2.047113 -1.40482,4.243584 -1.6718,4.80405 -0.60796,7.506415 2.95506,7.506415 1.96247,0 2.46482,0.509516 2.46482,2.5 l 0,2.5 -10.5,0 c -9.87612,0 -10.5,-0.120305 -10.5,-2.024751 z m 34,-20.498066 c 0,-0.889417 -6.30241,-15.928517 -7.03719,-16.792478 -0.65104,-0.765485 -1.30443,0.591374 -6.05077,12.565296 l -1.88286,4.75 7.48541,0 c 4.11698,0 7.48541,-0.235268 7.48541,-0.522818 z m 271.6449,234.824338 c -377.5548,84.81468 -188.7774,42.40734 0,0 z m -19.48206,4.33069 0,-1.80445 -191.27144,-0.18167 c -203.32125,-0.19312 -193.53276,-0.34468 -192.36595,2.97853 0.38019,1.08283 15.50059,1.16108 192.02503,0.99371 l 191.61236,-0.18167 z M 285.38984,267.52786 c -0.54483,-0.38482 -1.35282,-0.70465 -1.79553,-0.71073 -1.38635,-0.0191 -9.65031,-6.25202 -12.13305,-9.15119 -3.8461,-4.49123 -5.22269,-9.05801 -5.22652,-17.3386 -0.005,-9.97671 1.0581,-12.8581 7.26776,-19.70565 7.47244,-8.24007 22.08818,-16.88321 33.0204,-19.5269 10.72824,-2.59437 17.57099,-5.86988 24.12286,-11.54722 4.5187,-3.91555 6.76087,-8.06805 7.36458,-13.63908 0.34804,-3.21174 0.17235,-4.00155 -1.46437,-6.58281 -3.02984,-4.77834 -4.9937,-5.43568 -6.2597,-2.09523 -1.01493,2.67793 -7.36157,9.0702 -13.28871,13.38422 -4.5634,3.32144 -9.97658,5.85762 -18.39956,8.62055 -5.54109,1.8176 -13.89095,5.36636 -18.0545,7.67331 -3.77071,2.08927 -7.02681,5.2847 -9.18854,9.01728 -3.92926,6.78453 -4.20682,2.2087 -0.55359,-9.12648 2.81136,-8.72302 6.53762,-15.40346 9.53758,-17.09896 1.04989,-0.59338 4.65927,-1.84139 8.02086,-2.77338 10.35771,-2.8716 13.77082,-4.09318 16.28706,-5.82922 2.74044,-1.89073 4.51766,-4.33345 4.51766,-6.20934 0,-1.08828 -0.44707,-1.21291 -3.13694,-0.87454 -6.03943,0.75971 -16.38048,3.32447 -20.34426,5.04574 -3.9261,1.70489 -20.2022,10.64315 -26.0494,14.3054 -1.63451,1.02373 -3.41761,2.08721 -3.96245,2.36326 -1.14738,0.58136 -2.40863,1.54812 -11.61097,8.89988 -24.2805,19.39769 -25.92078,20.67685 -39.35981,30.69421 -3.51628,2.62101 -6.74739,5.23185 -7.18025,5.80189 -0.43286,0.57002 -1.03462,1.03641 -1.33723,1.03641 -0.46497,0 -6.75438,4.47985 -8.86397,6.31367 -1.15904,1.00752 -9.83206,7.13867 -11.88735,8.4034 -1.08967,0.67056 -3.16995,1.98268 -4.62285,2.91583 -1.4529,0.93316 -4.72192,2.8708 -7.2645,4.30587 -2.54256,1.43507 -5.06862,2.89469 -5.61346,3.24361 -1.08843,0.69701 -1.99011,1.12805 -9.14976,4.37391 -2.67141,1.21109 -5.29097,2.202 -5.82125,2.202 -0.82758,0 -3.65137,1.12191 -9.13388,3.62898 -0.72645,0.33219 33.30107,0.62099 75.61671,0.64179 49.89938,0.0245 76.58941,-0.20809 75.94693,-0.66188 z m 212.14296,-32.11324 0.17823,-32.83502 -2.38622,-1.04326 c -8.61027,-3.76446 -21.24305,-5.66508 -34.81916,-5.23857 -12.75014,0.40057 -15.89262,0.96291 -27.37692,4.89907 -9.78331,3.35316 -17.54409,7.26716 -24.50929,12.36078 -1.74312,1.27473 -9.1643,7.81388 -9.96962,8.78469 -0.36322,0.43787 -2.88103,2.90733 -5.59512,5.48769 -2.7141,2.58036 -6.87467,6.69263 -9.24571,9.13839 -2.37105,2.44574 -5.20255,5.19701 -6.29222,6.11391 -1.08967,0.91691 -4.04598,3.59235 -6.56957,5.94542 -2.52359,2.35307 -6.5527,5.66714 -8.95358,7.3646 -5.13545,3.63082 -17.88025,10.40891 -19.60169,10.4248 -0.65868,0.006 -1.64338,0.32591 -2.18822,0.71073 -0.64261,0.45387 26.78693,0.70355 78.08013,0.71073 l 79.07074,0.0111 0.17822,-32.83502 z m -415.711335,27.0791 c 15.006038,-1.68962 30.290885,-5.14237 44.410045,-10.0319 33.19137,-11.49437 44.13731,-18.2438 82.63107,-50.95159 24.26863,-20.62085 37.86587,-30.5873 52.84788,-38.73631 11.48328,-6.24598 14.59578,-7.69968 23.01898,-10.75116 10.54673,-3.82078 15.79443,-4.67535 28.39754,-4.62444 10.61075,0.0429 12.04386,0.20745 17.50081,2.00995 9.41686,3.11051 12.69647,5.20012 16.84041,10.7299 3.26489,4.35676 3.87703,4.84949 6.05263,4.87201 6.74981,0.0699 29.0219,-17.12735 54.81321,-42.32353 10.49288,-10.25074 14.85909,-13.95025 21.68517,-18.37393 7.08164,-4.589293 18.47178,-10.297823 25.69182,-12.876262 10.86183,-3.879003 25.31978,-5.606952 28.12906,-3.361854 1.3918,1.112285 2.68673,7.032251 3.3878,15.487866 l 0.44641,5.38397 -1.91593,-0.49959 c -7.53037,-1.96355 -19.29275,-1.04533 -28.99264,2.26329 -18.54946,6.32722 -36.33826,18.3361 -59.76692,40.34751 -12.26659,11.52456 -30.4961,26.72727 -36.43306,30.38377 -2.05857,1.26785 -3.93351,2.64232 -4.16653,3.0544 -0.23301,0.41207 -0.93478,0.74922 -1.55949,0.74922 -0.62469,0 -3.05892,2.14014 -5.40939,4.75587 -7.86905,8.75713 -17.21246,14.43076 -33.39796,20.28034 -5.23022,1.89025 -9.50948,3.65091 -9.50948,3.91258 0,0.95566 3.1439,1.34639 10.89673,1.35425 9.54137,0.01 15.70138,-1.57903 27.8098,-7.17236 12.48052,-5.7652 21.87543,-12.62199 33.38863,-24.36841 14.59951,-14.89524 21.64109,-20.71952 37.53818,-31.04877 23.73055,-15.41912 43.69815,-23.2905 59.08178,-23.2905 7.74932,0 18.18036,3.9793 18.18036,6.93557 0,0.95398 2.60128,10.38783 2.864,10.38664 0.41879,-0.002 -0.006,-70.566261 -0.42971,-71.280964 -0.4178,-0.705724 -5.42001,-0.866519 -22.45388,-0.72178 l -21.91633,0.186213 -2.97183,2.269226 c -1.63451,1.248072 -5.44025,3.838043 -8.45719,5.755483 -3.01694,1.917448 -15.94443,12.061099 -28.72775,22.541452 -34.44516,28.23971 -43.51075,34.81481 -56.67151,41.10287 -5.22013,2.49412 -7.08317,3.03511 -10.45224,3.03511 -3.63979,0 -4.31391,-0.23398 -6.0077,-2.08516 -7.54916,-8.25071 -15.40132,-11.33254 -28.33103,-11.11941 -22.39997,0.36924 -45.13343,9.81795 -78.03932,32.43548 -13.19965,9.07265 -14.83064,10.29088 -42.52342,31.76179 -18.15739,14.07788 -25.3261,18.95396 -38.30366,26.05373 -12.2837,6.72016 -20.27253,10.33756 -29.05796,13.15764 -3.99547,1.28253 -9.19618,2.96494 -11.55714,3.73869 -5.43074,1.7798 -19.521097,4.61953 -27.876207,5.61809 -12.992902,1.55284 -27.55058,0.78482 -33.04643,-1.74345 -1.060285,-0.48777 -1.155714,0.12665 -1.155714,7.44156 l 0,7.97322 2.476531,0.28312 c 6.659614,0.76136 19.629156,0.38556 31.041575,-0.89944 z m 244.056595,-8.42081 c 13.11789,-3.56303 25.72862,-11.22682 42.06279,-25.5624 6.53313,-5.73376 25.35455,-24.60563 27.49655,-27.57025 2.03202,-2.81242 12.52378,-11.20115 17.26876,-13.80732 17.77839,-9.76471 32.83207,-13.29586 53.30528,-12.50383 12.68461,0.49072 25.84195,3.19071 35.15863,7.21483 1.90247,0.82172 3.65346,1.28157 3.89106,1.02189 1.14297,-1.2492 -3.27997,-18.42602 -4.91094,-19.07197 -0.61509,-0.2436 -2.21415,-1.50632 -3.55346,-2.80602 -3.52171,-3.41755 -11.57456,-7.2464 -17.40128,-8.2737 -6.66724,-1.17549 -20.89473,-0.45047 -27.05258,1.37856 -6.72834,1.9985 -17.89588,6.81272 -25.58156,11.028 -13.49643,7.40222 -39.66844,27.55536 -55.97883,43.10519 -11.92171,11.36581 -19.89147,16.12835 -35.66203,21.31077 -8.50543,2.795 -10.95246,3.29797 -18.49143,3.80076 -10.63636,0.70937 -19.92557,-1.27305 -25.74518,-5.49432 l -2.96111,-2.14784 -2.7528,2.95274 c -3.0427,3.26368 -5.61771,8.02056 -6.88818,12.72469 -0.77175,2.85751 -0.72508,3.20011 0.65436,4.80492 2.05764,2.39379 8.30821,5.91854 12.9814,7.32028 4.29376,1.28795 20.10769,2.45215 26.36253,1.94078 2.17934,-0.17818 5.68846,-0.79277 7.79802,-1.36576 z M 85.788629,231.03745 c 16.873561,-2.9467 31.735041,-7.78525 52.233061,-17.00586 5.94519,-2.67432 25.69474,-13.2838 27.12602,-14.57212 0.57116,-0.51412 2.97017,-2.19217 5.33114,-3.72901 2.36095,-1.53684 8.7504,-6.26071 14.19876,-10.49748 26.17036,-20.3507 42.49557,-31.41558 57.4591,-38.94455 30.7016,-15.44765 55.67735,-22.60231 70.81933,-20.28721 6.63022,1.01372 7.39641,1.38263 11.50105,5.5377 2.77345,2.80754 3.32393,3.076 5.61346,2.73764 11.79056,-1.74246 26.81399,-8.80896 44.80458,-21.07452 12.86653,-8.77209 29.34786,-22.669705 39.29428,-33.134267 l 4.95306,-5.211069 -11.633,-0.02196 -11.633,-0.02197 -5.20741,5.620114 c -10.31568,11.133248 -21.45716,21.115582 -32.97859,29.547572 -8.51632,6.23267 -25.39679,15.21073 -30.52309,16.23403 -3.87652,0.77382 -4.25591,0.72565 -5.94368,-0.7546 -6.96714,-6.11054 -10.81263,-7.2722 -24.21113,-7.31383 -18.15745,-0.0565 -40.06479,6.83908 -61.13333,19.24214 -11.72819,6.90438 -31.66491,19.40086 -38.96407,24.42295 -12.90579,8.87966 -34.43718,22.82458 -39.29429,25.44917 -5.20621,2.81323 -33.01383,16.68338 -38.72723,19.31675 -4.59137,2.1162 -25.962486,8.31153 -36.229071,10.50254 -8.01112,1.70966 -22.631603,2.23117 -30.543872,1.08949 l -3.797347,-0.54792 0,5.41664 c 0,6.03707 -0.436496,5.52795 5.943673,6.93265 11.016101,2.42539 21.694378,2.7866 31.541596,1.06694 z m 0.488195,-35.0064 c 8.62599,-1.6718 23.491036,-5.77443 31.351926,-8.65288 22.08016,-8.08516 36.28202,-16.11626 65.72805,-37.16893 3.12917,-2.23721 12.4279,-7.93626 21.13306,-12.95211 9.2393,-5.32362 30.35389,-15.62982 37.03114,-18.0752 3.9689,-1.45351 7.81056,-2.91926 8.53701,-3.2572 1.88389,-0.87639 14.27971,-4.45296 25.09551,-7.2408 7.06048,-1.8199 10.6505,-2.37119 15.18938,-2.33255 7.79058,0.0663 15.63158,2.34917 18.63703,5.42605 1.30208,1.33304 2.01759,1.45572 6.38464,1.09475 8.17437,-0.67568 25.87329,-9.25192 38.0473,-18.436314 3.45063,-2.603246 8.20557,-6.187322 10.56653,-7.964607 5.1705,-3.892252 12.45477,-10.36609 12.50881,-11.117088 0.0214,-0.297734 -5.30514,-0.541337 -11.83681,-0.541337 l -11.87574,0 -3.06113,3.205643 c -7.31436,7.659674 -24.51746,19.733813 -33.58947,23.575053 -2.89191,1.22447 -6.83859,2.40461 -8.7704,2.62252 -3.1907,0.35991 -3.73946,0.19676 -5.99172,-1.7814 -6.63725,-5.829503 -13.55558,-7.840246 -24.77217,-7.199774 -14.62629,0.835175 -29.22946,5.270724 -47.82992,14.527794 -4.4495,2.21444 -11.73049,5.84145 -16.17999,8.06005 -9.47925,4.72652 -21.43797,10.26351 -27.73833,12.84309 -3.41671,1.39891 -4.61309,1.6222 -5.11839,0.95527 -0.3627,-0.47871 -1.28228,-1.68237 -2.0435,-2.67482 l -1.38405,-1.80445 1.33039,2.6481 c 1.23671,2.46164 1.25279,2.71922 0.22857,3.65787 -2.06019,1.88804 -14.93974,10.44226 -23.88591,15.86433 -14.2528,8.63827 -15.32779,9.25704 -19.15183,11.02394 -1.99774,0.92307 -6.01313,2.80167 -8.92308,4.17468 -9.40096,4.43569 -34.676957,13.63031 -42.918948,15.61259 -5.867779,1.41126 -19.616213,2.37909 -27.241832,1.91772 l -7.429591,-0.44953 0,7.93379 0,7.93377 5.778571,0.2882 c 10.184516,0.50794 24.715672,-0.26669 32.194893,-1.71623 z m -17.622521,-25.29079 2.780132,-2.23453 3.278642,1.28856 c 1.803257,0.7087 3.467413,1.08223 3.698127,0.83008 0.230713,-0.25215 -0.05957,-1.99496 -0.645028,-3.87291 -1.153593,-3.70025 -1.226476,-3.43072 2.269348,-8.39269 l 1.398401,-1.9849 -3.852424,-0.002 c -3.826498,-0.002 -3.865765,-0.0234 -5.833655,-3.23084 -1.089673,-1.77609 -2.270555,-3.13159 -2.624191,-3.0122 -0.353635,0.11939 -1.07245,1.72855 -1.597375,3.57591 -0.906614,3.19069 -1.130685,3.41487 -4.47519,4.4775 -1.936435,0.61512 -3.520793,1.41643 -3.520793,1.78058 0,0.36414 1.245007,1.60469 2.766674,2.7568 2.746902,2.07978 2.765439,2.12392 2.593753,6.17467 -0.09511,2.24396 0.08727,4.07993 0.405266,4.07993 0.318,0 1.829244,-1.00554 3.358314,-2.23452 z m 43.526787,-15.17261 c 2.39975,-2.90307 2.53538,-2.96263 5.88544,-2.58475 1.88599,0.21274 3.58253,0.21908 3.77009,0.0141 0.18756,-0.20499 -0.52996,-1.91978 -1.59449,-3.81065 -2.01549,-3.57997 -2.39153,-4.75416 -1.28267,-4.00516 0.36568,0.24701 0.4899,-0.0231 0.28241,-0.61405 -0.20373,-0.58024 0.11877,-2.0889 0.71666,-3.35256 0.59791,-1.26366 0.91537,-2.48525 0.70548,-2.71465 -0.2099,-0.2294 -1.91749,-0.0296 -3.79465,0.44395 -3.30931,0.83486 -3.47448,0.80022 -5.43514,-1.13984 -1.11215,-1.10048 -2.24973,-2.32567 -2.52792,-2.72265 -0.84301,-1.20295 -1.80557,1.19103 -1.81652,4.51779 -0.01,2.91346 -0.18524,3.19201 -3.35884,5.32622 -1.84182,1.23859 -3.10485,2.49207 -2.80674,2.78553 0.2981,0.29345 1.91179,1.09013 3.58598,1.7704 2.91051,1.18259 3.07909,1.40829 3.84471,5.14735 0.4404,2.15079 0.92878,3.91054 1.08529,3.91054 0.15651,0 1.38992,-1.3372 2.74091,-2.97157 z M 51.605401,144.42324 c 0,-0.22118 -0.337594,-1.86746 -0.750211,-3.6584 -0.744366,-3.23085 -0.73047,-3.27832 1.784086,-6.09277 2.867135,-3.20908 2.608552,-4.04364 -1.364079,-4.40242 l -2.641633,-0.23857 -0.188374,6.97845 c -0.167183,6.19309 -0.05567,7.01614 0.990612,7.31343 1.823603,0.51814 2.169599,0.53414 2.169599,0.10028 z m 38.034523,-10.02406 c 4.17575,0.5702 4.34371,0.18657 1.82646,-4.1716 -1.568701,-2.7159 -1.6619,-3.24242 -0.92369,-5.21854 1.28957,-3.45216 1.57281,-5.4459 0.77366,-5.4459 -0.40036,0 -2.06682,0.39138 -3.70324,0.86972 -2.910703,0.85084 -3.022729,0.81949 -5.159076,-1.44356 -3.061718,-3.24331 -3.771907,-2.9981 -3.771907,1.30229 0,3.56142 -0.04946,3.64882 -3.302041,5.83615 -1.816121,1.22131 -3.30204,2.37298 -3.30204,2.55927 0,0.18628 1.59299,1.10866 3.539986,2.04973 3.304345,1.59714 3.569703,1.91421 3.986579,4.76344 0.245626,1.67883 0.630993,3.37851 0.856371,3.77707 0.225377,0.39855 1.579326,-0.6457 3.008766,-2.32054 2.588812,-3.03326 2.612992,-3.04327 6.170172,-2.55753 z m 66.721336,-3.20424 c 1.94225,0.0983 3.69834,-0.003 3.90242,-0.22677 0.20408,-0.22305 -0.54789,-1.89372 -1.67107,-3.7126 -1.9086,-3.09081 -1.98088,-3.43865 -1.10529,-5.3193 0.51526,-1.10673 1.15688,-2.79046 1.42582,-3.74162 0.47288,-1.67244 0.40142,-1.71408 -2.17004,-1.26467 -1.46244,0.25558 -3.06817,0.6363 -3.56827,0.84604 -0.5001,0.20975 -2.1748,-0.80255 -3.72155,-2.24956 -1.54675,-1.447 -2.99633,-2.42974 -3.2213,-2.18388 -0.43373,0.47404 -0.70325,2.40882 -0.79361,5.697 -0.0431,1.573 -0.6929,2.42374 -3.0282,3.96541 -1.63525,1.0795 -2.88457,2.25324 -2.7763,2.60828 0.10829,0.35505 1.52052,1.20581 3.13828,1.89059 2.56835,1.08714 3.05304,1.64661 3.82176,4.41129 0.48421,1.74143 1.02234,3.65026 1.19586,4.24183 0.22504,0.76723 0.99274,0.1845 2.67781,-2.0326 2.29472,-3.01928 2.46338,-3.1031 5.89368,-2.92944 z m 19.44426,-6.16129 c -0.44287,-0.58321 -0.7081,-1.76811 -0.58941,-2.63312 0.18586,-1.35455 2.13961,-2.29596 14.08436,-6.78639 18.24561,-6.85914 17.87599,-6.69307 36.77216,-16.522613 10.20353,-5.307743 23.66331,-10.952063 30.78384,-12.909102 4.57985,-1.25875 7.7128,-1.584787 15.40235,-1.602874 l 9.65305,-0.02275 5.69512,3.154982 c 5.54237,3.070362 5.77774,3.13225 8.77512,2.307361 8.09077,-2.226601 16.53824,-5.661091 24.66976,-10.029977 l 8.91551,-4.790117 -3.96244,-0.237432 c -2.17935,-0.130584 -8.56963,-0.136293 -14.20063,-0.01273 -9.44818,0.207395 -10.34759,0.344473 -11.65617,1.776536 -1.54364,1.689291 -7.15756,3.715069 -12.05052,4.348411 -2.98601,0.386512 -3.18964,0.288084 -6.11676,-2.956898 l -3.02792,-3.35672 -21.1996,0.0822 c -15.82258,0.06137 -21.16205,0.29681 -21.05155,0.928486 0.0814,0.465477 -2.67519,2.406904 -6.12581,4.314276 -3.45064,1.907372 -9.84009,5.666191 -14.19878,8.352925 -10.96704,6.760179 -27.12239,14.758256 -37.47791,18.554286 -4.78261,1.75317 -8.92522,3.18757 -9.2058,3.18757 -0.28058,0 -1.24497,-1.5428 -2.14308,-3.42845 -0.89811,-1.88565 -1.64677,-3.2375 -1.66367,-3.00412 -0.0462,0.63668 5.38686,13.64644 6.90787,16.54146 0.72884,1.38723 1.74467,3.41495 2.2574,4.50604 0.51272,1.09109 1.07318,1.82975 1.24547,1.64144 0.17229,-0.1883 -0.049,-0.81953 -0.49196,-1.40273 z m -47.70854,-9.72338 c 1.86283,0.10805 3.56394,0.003 3.78025,-0.23337 0.21632,-0.23641 -0.37112,-1.75326 -1.3054,-3.37079 -2.02808,-3.51125 -2.04421,-3.87196 -0.35496,-7.94103 l 1.31473,-3.16693 -2.84501,0.42619 c -1.56475,0.23441 -3.28906,0.61242 -3.83179,0.84004 -0.5772,0.24208 -2.11604,-0.64257 -3.70737,-2.131273 -1.49632,-1.39982 -2.89622,-2.545123 -3.1109,-2.545123 -0.21468,0 -0.39438,1.218013 -0.39934,2.706673 -0.0149,4.487903 -0.6299,5.741623 -3.68512,7.513023 -1.60083,0.92815 -2.82246,1.97655 -2.71472,2.32977 0.10772,0.35322 1.51949,1.20356 3.13725,1.88963 3.09749,1.31361 4.56629,3.41382 4.58268,6.55265 0.0163,3.11309 0.88708,3.09883 3.37654,-0.0553 2.27423,-2.88144 2.52152,-3.0022 5.76316,-2.81415 z m -69.109024,-5.14232 c -0.612853,-3.68519 -0.576992,-3.82693 1.60878,-6.35962 1.229581,-1.42473 2.2356,-2.81012 2.2356,-3.07866 0,-0.26853 -1.63451,-0.71143 -3.632244,-0.984233 -1.997733,-0.27279 -3.632244,-0.76426 -3.632244,-1.09215 0,-0.3279 -0.730233,-2.001253 -1.622748,-3.718568 l -1.622749,-3.122382 -1.44192,3.590046 c -0.793059,1.974525 -1.697336,3.698314 -2.009496,3.830644 -0.840879,0.35645 -0.718484,13.834103 0.12563,13.834103 0.381266,0 1.496127,-0.4538 2.477474,-1.00843 1.608027,-0.90881 2.077715,-0.84429 4.755163,0.65331 1.633987,0.91395 3.0642,1.5635 3.178231,1.44344 0.11404,-0.12006 -0.07472,-1.91443 -0.419477,-3.9875 z M 101.02266,98.253617 c 3.9793,0.59815 4.20089,0.12119 1.76436,-3.797702 -1.99459,-3.208076 -1.98727,-2.997866 -0.24554,-7.047575 0.77302,-1.797342 1.24666,-3.441481 1.05254,-3.653643 -0.19411,-0.212163 -1.49525,-0.03905 -2.8914,0.38463 -3.857837,1.170764 -4.635027,0.986809 -7.411047,-1.75423 -2.51938,-2.487629 -2.57209,-2.503659 -2.96473,-0.902223 -0.21985,0.896731 -0.4038,2.770143 -0.40876,4.163139 -0.008,2.276643 -0.35535,2.760642 -3.43446,4.787057 l -3.425445,2.254346 3.714765,1.920674 c 3.65259,1.888526 3.72783,1.98943 4.49499,6.02819 l 0.78021,4.10751 2.77958,-3.50178 2.77958,-3.501775 z m 69.64833,-3.919883 c 15.87058,-4.503183 36.78142,-14.762669 37.94851,-18.618677 0.21399,-0.707015 -3.62328,-0.902223 -17.73552,-0.902223 -16.51385,0 -18.12174,0.109629 -19.37196,1.32083 -1.64762,1.596197 -9.21603,5.175182 -10.94386,5.175182 -1.51509,0 -2.11515,-0.987829 -2.61581,-4.306152 -0.21167,-1.402915 -0.58101,-2.209752 -0.82075,-1.792984 -0.40314,0.700817 3.92913,15.652349 6.11797,21.114326 0.7091,1.769449 1.00493,2.042631 1.14755,1.059706 0.14767,-1.017823 1.59981,-1.723765 6.27387,-3.050008 z M 135.71638,82.848987 c 0.43346,-0.746256 1.51805,-0.869196 4.45945,-0.505495 2.13768,0.264323 3.88669,0.291267 3.88669,0.05988 0,-0.231401 -0.74797,-2.033929 -1.66215,-4.005621 l -1.66214,-3.584878 -8.24397,0 c -4.53419,0 -8.24312,0.243604 -8.24207,0.541338 0.002,0.297733 1.41268,1.353334 3.13693,2.345783 2.86124,1.646858 3.15147,2.056583 3.32325,4.691558 0.31203,4.786491 0.60112,5.135016 2.63406,3.175685 0.98845,-0.952667 2.05493,-2.175862 2.36995,-2.71821 z m -65.297545,-4.098714 3.729243,0.509234 -1.065039,-2.250955 -1.065047,-2.250964 -5.748542,0.208066 -5.748542,0.208065 0.177907,3.248007 c 0.295573,5.39607 0.571827,5.602497 3.424078,2.55853 2.528702,-2.698676 2.621899,-2.731686 6.295942,-2.229983 z M 497.27166,60.824628 c 0.13152,-0.746387 -0.1616,-1.63462 -0.65137,-1.973845 -0.48977,-0.339216 -47.41722,-0.621748 -104.28322,-0.627823 -109.46716,-0.01168 -106.55858,-0.09818 -105.42346,3.134803 0.38575,1.098661 8.40607,1.17535 105.26826,1.006605 102.02732,-0.177749 104.85712,-0.219214 105.08979,-1.53974 z"
         id="path6223"
         style="fill:#ffffff;fill-opacity:1" />
      <text
         x="129.41971"
         y="353.74249"
         id="text6268"
         xml:space="preserve"
         style="font-size:144px;font-style:normal;font-variant:normal;font-weight:normal;font-stretch:normal;line-height:125%;letter-spacing:0px;word-spacing:0px;writing-mode:lr-tb;fill:#ffffff;fill-opacity:1;stroke:none;font-family:Open Sans;-inkscape-font-specification:Sans"><tspan
           x="129.41971"
           y="353.74249"
           id="tspan6270"
           style="font-size:72px;fill:#ffffff;fill-opacity:1">Certified</tspan></text>
      <path
         d="m 116.16312,326.55779 0,-1.80445 -29.443614,-0.18167 c -31.2985,-0.19312 -29.7917,-0.34468 -29.61208,2.97853 0.0585,1.08283 2.3861,1.16108 29.5596,0.99371 l 29.496094,-0.18167 z"
         id="path6310"
         style="fill:#ffffff;fill-opacity:1" />
      <path
         d="m 494.02894,326.55779 0,-1.80445 -29.44361,-0.18167 c -31.2985,-0.19312 -29.7917,-0.34468 -29.61208,2.97853 0.0585,1.08283 2.3861,1.16108 29.5596,0.99371 l 29.49609,-0.18167 z"
         id="path6310-0"
         style="fill:#ffffff;fill-opacity:1" />
    </g>
  </g>
</svg>
