<?xml version="1.0" encoding="UTF-8" standalone="no"?>
<!-- Created with Inkscape (http://www.inkscape.org/) -->

<svg
   xmlns:dc="http://purl.org/dc/elements/1.1/"
   xmlns:cc="http://creativecommons.org/ns#"
   xmlns:rdf="http://www.w3.org/1999/02/22-rdf-syntax-ns#"
   xmlns:svg="http://www.w3.org/2000/svg"
   xmlns="http://www.w3.org/2000/svg"
   xmlns:sodipodi="http://sodipodi.sourceforge.net/DTD/sodipodi-0.dtd"
   xmlns:inkscape="http://www.inkscape.org/namespaces/inkscape"
   width="300"
   height="225"
   id="svg3035"
   version="1.1"
   inkscape:version="0.48.4 r9939"
   sodipodi:docname="divider_logo.svg">
  <defs
     id="defs3037">
    <inkscape:path-effect
       effect="skeletal"
       id="path-effect4016"
       is_visible="true"
       pattern="m -541.3437,-203.70408 10,5 0,-10 z"
       copytype="single_stretched"
       prop_scale="1"
       scale_y_rel="false"
       spacing="0"
       normal_offset="0"
       tang_offset="0"
       prop_units="false"
       vertical_pattern="false"
       fuse_tolerance="0" />
  </defs>
  <sodipodi:namedview
     id="base"
     pagecolor="#141414"
     bordercolor="#666666"
     borderopacity="1.0"
     inkscape:pageopacity="0.55686275"
     inkscape:pageshadow="2"
     inkscape:zoom="1.6825"
     inkscape:cx="207.38886"
     inkscape:cy="128.53787"
     inkscape:current-layer="layer1"
     inkscape:document-units="px"
     showgrid="false"
     inkscape:window-width="1600"
     inkscape:window-height="845"
     inkscape:window-x="0"
     inkscape:window-y="30"
     inkscape:window-maximized="1"
     showguides="true"
     inkscape:guide-bbox="true">
    <sodipodi:guide
       orientation="1,0"
       position="200.29718,355.42348"
       id="guide4399" />
  </sodipodi:namedview>
  <metadata
     id="metadata3040">
    <rdf:RDF>
      <cc:Work
         rdf:about="">
        <dc:format>image/svg+xml</dc:format>
        <dc:type
           rdf:resource="http://purl.org/dc/dcmitype/StillImage" />
        <dc:title />
      </cc:Work>
    </rdf:RDF>
  </metadata>
  <g
     id="layer1"
     inkscape:label="Layer 1"
     inkscape:groupmode="layer"
     transform="translate(0,-375)">
    <path
       style="opacity:0.7;fill:none;stroke:#ffffff;stroke-width:0.72109842;stroke-linecap:butt;stroke-linejoin:miter;stroke-opacity:1"
       d="m 13.352881,590.42761 273.294239,0"
       id="path3895"
       inkscape:connector-curvature="0" />
    <path
       style="opacity:0.7;fill:none;stroke:#ffffff;stroke-width:0.72109842;stroke-linecap:butt;stroke-linejoin:miter;stroke-opacity:1"
       d="m 61.041925,579.64983 177.916145,0"
       id="path3895-3"
       inkscape:connector-curvature="0" />
    <path
       style="fill:#ffffff;fill-opacity:0;fill-rule:evenodd;stroke:none"
       d="m 151.33829,539.20669 c -14.33149,-21.06526 -28.88426,-41.70373 -43.65832,-61.91542 0,0 1e-5,0 1e-5,0 28.18914,0.26159 55.88174,0.53188 83.07779,0.81086 1e-5,0 1e-5,0 1e-5,0 -14.31308,19.85633 -28.84372,39.30612 -43.5919,58.34938 l 8.34482,5.51034 c 12.48996,-22.20602 25.19746,-44.0055 38.12252,-65.39844 -1e-5,0 -1e-5,0 -1e-5,0 -29.58535,0.0244 -58.67415,0.04 -87.26641,0.047 0,0 -1e-5,0 -1e-5,0 14.76921,21.29222 29.75971,42.15765 44.9715,62.5963 z"
       id="path4014"
       inkscape:path-effect="#path-effect4016"
       inkscape:original-d="m 151.33829,539.20669 -44.31491,-62.25586 85.17212,0.38194 -40.85721,61.87391"
       inkscape:connector-curvature="0" />
    <path
       style="opacity:0.7;fill:none;stroke:#ffffff;stroke-width:0.54378819;stroke-linecap:butt;stroke-linejoin:miter;stroke-opacity:1"
       d="m 150,534.31719 0,56.09839"
       id="path3078-0"
       inkscape:connector-curvature="0" />
    <g
       style="font-size:40px;font-style:normal;font-variant:normal;font-weight:normal;font-stretch:normal;line-height:125%;letter-spacing:0px;word-spacing:0px;fill:#ffffff;fill-opacity:1;stroke:none;font-family:Kaushan Script;-inkscape-font-specification:Kaushan Script"
       id="text3020"
       transform="matrix(0.9013731,0,0,0.9013731,-426.87878,-128.43135)">
      <path
         id="path3799"
         style="fill:#ffffff;fill-opacity:1"
         d="m 665.4419,661.39024 c -1.2,0 -3.12001,0.2 -5.12,0.52 2.71999,-6.08 3.56,-7.84 4.2,-8.8 2.19999,-0.32 4.6,-0.68 7.52,-0.68 0.8,0 1.76,0.04 3.4,0.2 -0.48,-2.32 -1.48,-3.68 -2.72,-3.68 -1.8,0 -7.04001,0.88 -13.72,0.88 -1.6,0 -2.44,-0.04 -3.48,-0.2 -0.16,0.4 -0.32,1.12 -0.32,1.52 0,1.48 1.16,2.52 3,2.6 -0.64,3.07999 -1.28,4.92 -2.84,9.04 -1.84,0.44 -3.24,0.84 -3.52,1.12 0.36,0.92 1.2,1.64 2.36,2 -2.48,6.51999 -4.08,10.32 -5,12.24 1.12,1.8 2.36,3.04 3.56,3.52 4.51999,-0.8 6.88,-1.04 10.44,-1.04 2.67999,0 4.12,0.04 5.6,0.08 0.08,-0.36 0.08,-0.76 0.08,-1.08 0,-1.24 -0.44,-2.32 -1.04,-3.2 -4.8,0.32 -9.16001,1 -13.48,1.88 0.08,-1.56 1.72,-6.68001 4.16,-12.36 2.11999,-0.28 4.56,-0.8 6.84,-0.8 1.16,0 2,0.08 2.68,0.2 0.12,-0.32 0.2,-0.84 0.2,-1.24 0,-1.72 -1.04,-2.72 -2.8,-2.72 m -18.5725,-10.48 c -2.72,5.15999 -5.32001,10.36 -7.92,15.76 -1,0.08 -2.4,0.16 -3.4,0.16 -1.48,0 -3,-0.2 -4.36,-0.8 2.35999,-3.28 7.28,-9.16001 10.92,-13.32 -1.52,-1.28 -3.44,-2.12 -5.32,-2.68 -2.72,5.83999 -6.36001,11.64 -10.56,16.4 1.92,2.31999 5.28,2.72 8.2,2.72 1.04,0 2.52,-0.16 3.52,-0.28 -1.4,3.07999 -2.56,6.12 -3.52,9.32 1.12,1.24 2.68,1.44 4.28,1.48 0.92,-4.2 2.36,-8.16001 4.28,-12.08 l 3.16,-1.16 c -0.04,-0.32 -0.2,-0.64 -0.4,-0.88 l -1.96,0.4 c 2.23999,-4.4 4.68,-8.60001 7.48,-12.48 -0.92,-1.4 -2.8,-2.2 -4.4,-2.56 m -26.03125,10.84 c -1.28,0 -3.28001,0.24 -5.36,0.56 2.99999,-6.76 3.76,-8.36 4.4,-9.32 2.03999,-0.32 4.28,-0.6 6.96,-0.6 0.8,0 1.76,0.04 3.44,0.2 -0.52,-2.32 -1.52,-3.68 -2.76,-3.68 -1.8,0 -7.04001,0.88 -13.72,0.88 -1.6,0 -2.44,-0.04 -3.44,-0.2 -0.2,0.4 -0.36,1.12 -0.36,1.52 0,1.56 1.36,2.6 3.4,2.6 l 0.2,0 c -0.68,3.23999 -1.48,5.36 -3.04,9.52 -1.76,0.4 -3.08,0.76 -3.36,1.04 0.32,0.88 1.12,1.6 2.2,1.96 -2.88,7.35999 -4.04,10.24 -4.84,11.92 1.24,2.03999 2.56,3.12 4.36,3.52 0.84,-4.8 2.36,-9.68001 4.76,-15.32 2.15999,-0.28 4.68,-0.84 7.04,-0.84 1.16,0 2,0.08 2.68,0.2 0.16,-0.32 0.2,-0.84 0.2,-1.24 0,-1.72 -1.04,-2.72 -2.76,-2.72 m 68.71372,3.53996 c 0,27.36674 -22.18513,49.55187 -49.55187,49.55187 -27.36673,0 -49.55187,-22.18513 -49.55187,-49.55187 0,-27.36673 22.18514,-49.55186 49.55187,-49.55186 27.36674,0 49.55187,22.18513 49.55187,49.55186 z"
         inkscape:connector-curvature="0" />
    </g>
    <path
       sodipodi:type="arc"
       style="opacity:0.7;fill:none;stroke:#ffffff;stroke-width:4.51179647;stroke-miterlimit:4;stroke-opacity:1;stroke-dasharray:none"
       id="path4401"
       sodipodi:cx="200.89153"
       sodipodi:cy="190.78752"
       sodipodi:rx="197.32541"
       sodipodi:ry="144.42793"
       d="m 398.21693,190.78752 a 197.32541,144.42793 0 1 1 -394.6508137,0 197.32541,144.42793 0 1 1 394.6508137,0 z"
       transform="matrix(0.27346968,0,0,0.37362936,95.062259,399.95951)" />
    <path
       sodipodi:type="arc"
       style="opacity:0.7;fill:none;stroke:#ffffff;stroke-width:3.88446426;stroke-miterlimit:4;stroke-opacity:1;stroke-dasharray:none"
       id="path4401-0"
       sodipodi:cx="200.89153"
       sodipodi:cy="190.78752"
       sodipodi:rx="197.32541"
       sodipodi:ry="144.42793"
       d="m 398.21693,190.78752 a 197.32541,144.42793 0 1 1 -394.6508137,0 197.32541,144.42793 0 1 1 394.6508137,0 z"
       transform="matrix(0.3176344,0,0,0.43396964,86.189941,388.44733)" />
  </g>
</svg>
