<?xml version="1.0" encoding="UTF-8" standalone="no"?>
<!-- Created with Inkscape (http://www.inkscape.org/) -->

<svg
   xmlns:dc="http://purl.org/dc/elements/1.1/"
   xmlns:cc="http://creativecommons.org/ns#"
   xmlns:rdf="http://www.w3.org/1999/02/22-rdf-syntax-ns#"
   xmlns:svg="http://www.w3.org/2000/svg"
   xmlns="http://www.w3.org/2000/svg"
   version="1.1"
   width="566.83691"
   height="220.65915"
   id="svg2985">
  <defs
     id="defs2987">
    <marker
       refX="0"
       refY="0"
       orient="auto"
       id="Arrow2Lend"
       style="overflow:visible">
      <path
         d="M 8.7185878,4.0337352 -2.2072895,0.01601326 8.7185884,-4.0017078 c -1.7454984,2.3720609 -1.7354408,5.6174519 -6e-7,8.035443 z"
         transform="matrix(-1.1,0,0,-1.1,-1.1,0)"
         id="path4052"
         style="fill-rule:evenodd;stroke-width:0.625;stroke-linejoin:round" />
    </marker>
  </defs>
  <metadata
     id="metadata2990">
    <rdf:RDF>
      <cc:Work
         rdf:about="">
        <dc:format>image/svg+xml</dc:format>
        <dc:type
           rdf:resource="http://purl.org/dc/dcmitype/StillImage" />
        <dc:title></dc:title>
      </cc:Work>
    </rdf:RDF>
  </metadata>
  <g
     transform="translate(-38.85799,-126.23158)"
     id="layer1">
    <g
       transform="translate(43.886525,-36.141844)"
       id="g3123">
      <path
         d="m 38.290653,347.51613 c -11.056308,-0.0356 -19.997767,-0.16315 -20.277673,-0.28936 -0.275379,-0.12418 -1.007627,-0.3637 -1.627225,-0.53229 -4.455437,-1.21223 -8.9038719,-5.43474 -10.2814822,-9.75932 -0.2856193,-0.8966 -0.6519958,-1.90071 -0.8141783,-2.23135 -0.42201,-0.86035 -0.4262847,-80.53732 -0.00409,-81.41041 0.1597758,-0.33064 0.4776571,-1.22076 0.7063884,-1.97805 1.2900967,-4.27122 5.6010911,-8.58051 9.8929621,-9.88904 0.757283,-0.23089 1.647398,-0.55053 1.978028,-0.7103 0.451177,-0.21804 15.94041,-0.29052 62.084731,-0.29052 59.462996,0 61.532936,0.0155 62.985616,0.47037 2.89879,0.90777 5.38002,2.38076 7.40871,4.39821 1.87731,1.8669 2.09772,2.22337 4.32698,6.99803 0.40911,0.87622 0.39951,81.56483 -0.01,82.41176 -0.15978,0.33062 -0.47765,1.22071 -0.70638,1.97799 -0.93968,3.11106 -3.77921,6.69283 -6.70498,8.45761 -0.7497,0.45222 -2.30879,1.18387 -3.46465,1.6259 l -2.10158,0.8037 -41.807062,0.005 c -22.993875,0.003 -50.706693,-0.0233 -61.58404,-0.0583 z m 92.501227,-7.82852 c 0.29816,-0.19137 -3.27195,-3.88957 -17.33133,-17.95314 l -17.706851,-17.71212 -7.076971,7.03875 c -7.548532,7.50775 -7.911322,7.77876 -9.374355,7.00271 -0.388695,-0.20617 -3.86027,-3.5366 -7.714606,-7.40096 -3.854336,-3.86435 -7.119407,-7.02609 -7.255709,-7.02609 -0.29168,0 -35.095324,34.71447 -35.456771,35.36593 -0.135265,0.2438 -0.177754,0.55359 -0.09442,0.68843 0.205899,0.33315 101.491923,0.32967 102.011013,-0.004 z m 13.41828,-1.26882 c 0.92589,-0.57222 1.90949,-1.92839 2.53074,-3.48933 0.42337,-1.06374 0.45213,-3.36981 0.51612,-41.37482 0.0641,-38.0682 0.0441,-40.25737 -0.3684,-40.41566 -0.33926,-0.13019 -5.42858,4.86188 -22.91143,22.47364 -12.3614,12.45254 -22.47527,22.8111 -22.47527,23.01901 0,0.20791 9.10371,9.47915 20.23046,20.60276 20.22252,20.21677 20.23077,20.22461 20.96333,19.9461 0.40307,-0.15326 1.08457,-0.49601 1.51445,-0.7617 z M 38.352662,318.84559 c 11.187456,-11.18682 20.340833,-20.50916 20.340833,-20.7163 0,-0.61227 -44.502924,-44.96922 -44.809569,-44.66258 -0.179186,0.17919 -0.23979,13.01943 -0.193749,41.04951 l 0.06702,40.78876 0.743777,1.34288 c 0.770306,1.39075 2.128854,2.53741 3.006301,2.53741 0.334837,0 7.347328,-6.84236 20.845414,-20.33968 z m 43.791019,-12.19402 c 1.26159,-0.99237 57.410159,-57.53774 57.410159,-57.81587 0,-0.1978 -16.51638,-0.27411 -59.330969,-0.27411 -47.338919,0 -59.330961,0.0634 -59.330961,0.31334 0,0.34584 57.401751,57.78656 58.204423,58.24396 0.708165,0.40352 2.238623,0.16882 3.047348,-0.46732 z"
         id="path3127"
         style="fill:#ffffff;fill-opacity:1" />
      <g
         transform="matrix(0.76744147,0,0,0.76744147,100.85217,77.913034)"
         id="g4011"
         style="fill:#ffffff;fill-opacity:1">
        <path
           d="m 372.60992,284.0286 0,-67.3189 1.15479,-1.07435 c 1.84676,-1.71813 103.58377,-77.88142 105.03336,-78.63104 1.20777,-0.62456 1.41593,-0.62456 2.6237,0 1.44959,0.74962 103.1866,76.91291 105.03336,78.63104 l 1.15479,1.07435 0,67.3189 0,67.3189 -107.5,0 -107.5,0 0,-67.3189 z m 188.32689,52.2432 c -2.20787,-2.14892 -56.1758,-48.3325 -56.47906,-48.3325 -0.16064,0 -5.56289,4.15039 -12.00501,9.2231 -6.44212,5.0727 -11.99638,9.22309 -12.34282,9.22309 -0.34644,0 -5.9007,-4.15039 -12.34282,-9.22309 -6.44212,-5.07271 -11.82761,-9.223 -11.96777,-9.22287 -0.28383,2.6e-4 -54.538,46.39278 -56.5163,48.32684 l -1.25169,1.22371 82.07858,0 82.07858,0 -1.25169,-1.21828 z M 415.62678,303.01613 c 15.65142,-13.4177 28.29577,-24.54952 28.09855,-24.73739 -1.20296,-1.14593 -56.67221,-44.50937 -56.93509,-44.50937 -0.17759,0 -0.3229,21.06959 -0.3229,46.82129 0,25.75171 0.15802,46.82129 0.35115,46.82129 0.19313,0 13.15686,-10.97812 28.80829,-24.39582 z M 573.7525,280.59066 c 0,-25.7517 -0.14531,-46.82129 -0.3229,-46.82129 -0.70845,0 -56.57652,44.23639 -56.57652,44.79733 0,0.59604 55.85119,48.84525 56.54114,48.84525 0.19705,0 0.35828,-21.06958 0.35828,-46.82129 z m -73.85311,-7.76855 c 10.43898,-8.19898 19.23453,-15.15879 19.54567,-15.46625 0.46142,-0.45598 0.54559,-4.17147 0.45659,-20.15625 l -0.10911,-19.59723 -39.68262,0 -39.68262,0 -0.10913,19.63052 -0.10913,19.63051 0.94897,0.82087 c 5.39857,4.66977 38.49133,30.22146 39.04172,30.14501 0.39583,-0.055 9.26067,-6.80821 19.69966,-15.00718 z m -46.90615,-8.95955 c -0.11973,-0.31201 -0.16157,-1.96684 -0.093,-3.6774 l 0.12471,-3.11012 27.08496,0 27.08496,0 0,3.56933 0,3.56934 -26.99197,0.10807 c -22.35614,0.0895 -27.02937,0.0106 -27.20967,-0.45922 z m 0,-13.4375 c -0.11973,-0.31201 -0.16157,-1.96684 -0.093,-3.6774 l 0.12471,-3.11012 27.08496,0 27.08496,0 0,3.56933 0,3.56934 -26.99197,0.10807 c -22.35614,0.0895 -27.02937,0.0106 -27.20967,-0.45922 z m 0,-13.4375 c -0.11973,-0.31201 -0.16157,-1.96684 -0.093,-3.6774 l 0.12471,-3.11012 27.08496,0 27.08496,0 0,3.56933 0,3.56934 -26.99197,0.10807 c -22.35614,0.0895 -27.02937,0.0106 -27.20967,-0.45922 z m -26.95218,-12.77141 0.1089,-20.89111 53.95996,0 53.95996,0 0.1089,20.89111 c 0.0737,14.13099 0.2504,20.89112 0.5462,20.89112 0.48782,0 32.73921,-25.23833 32.71052,-25.59762 -0.01,-0.12517 -19.66234,-14.94277 -43.67188,-32.92799 l -43.6537,-32.70042 -43.65226,32.70042 c -24.00875,17.98522 -43.61385,32.83914 -43.5669,33.0087 0.14457,0.52209 31.96578,25.46646 32.52041,25.49247 0.40666,0.0191 0.54489,-4.56013 0.62989,-20.86668 z"
           id="path4017"
           style="fill:#ffffff;fill-opacity:1" />
        <path
           d="m 372.62816,284.05502 0.0182,-67.29248 53.73176,-40.2592 53.73176,-40.25919 53.73176,40.25919 53.73177,40.2592 0.0182,67.29248 0.0182,67.29248 -107.5,0 -107.5,0 0.0182,-67.29248 z m 190.20637,53.46568 c 0,-0.57787 -57.78355,-50.00388 -58.4384,-49.98614 -0.30834,0.008 -5.83145,4.16557 -12.27356,9.23828 -6.44212,5.0727 -11.84781,9.2231 -12.01265,9.2231 -0.16484,0 -5.57053,-4.1504 -12.01265,-9.2231 -6.44211,-5.07271 -11.96522,-9.22993 -12.27356,-9.23828 -0.65485,-0.0177 -58.4384,49.40827 -58.4384,49.98614 0,0.2378 32.19247,0.3893 82.72461,0.3893 50.53214,0 82.72461,-0.1515 82.72461,-0.3893 z M 414.92279,304.26 c 15.41322,-13.19549 28.3972,-24.3449 28.85328,-24.77646 0.82413,-0.7798 0.82283,-0.79091 -0.20996,-1.80025 -2.43814,-2.38278 -56.79223,-44.73325 -57.13798,-44.51956 -0.55005,0.33994 -0.50526,95.08807 0.0449,95.08807 0.23412,0 13.03648,-10.79631 28.44971,-23.9918 z m 159.24963,-23.43459 c 0,-27.90835 -0.15668,-47.52322 -0.38071,-47.66168 -0.3154,-0.19493 -54.03774,41.61229 -57.05167,44.39814 -0.5241,0.48443 -0.90202,1.03316 -0.83985,1.21941 0.20149,0.60356 57.20535,49.40567 57.74733,49.43862 0.41701,0.0253 0.5249,-9.71631 0.5249,-47.39449 z m -73.89753,-7.71197 19.93757,-15.66571 0,-20.13263 0,-20.13264 -40.10254,0 -40.10254,0 0,20.13264 0,20.13263 19.93757,15.66571 c 10.96566,8.61613 20.0399,15.6657 20.16497,15.6657 0.12507,0 9.19931,-7.04957 20.16497,-15.6657 z m -46.8636,-9.67569 c -0.12078,-0.31474 -0.16263,-1.78063 -0.093,-3.25753 l 0.12659,-2.68526 26.66504,0 26.66504,0 0,3.14941 0,3.14942 -26.57204,0.10812 c -22.11688,0.09 -26.60885,0.0122 -26.79163,-0.46416 z m 0,-13.4375 c -0.12078,-0.31474 -0.16263,-1.78063 -0.093,-3.25753 l 0.12659,-2.68526 26.66504,0 26.66504,0 0,3.14941 0,3.14942 -26.57204,0.10812 c -22.11688,0.09 -26.60885,0.0122 -26.79163,-0.46416 z m 0,-13.4375 c -0.12078,-0.31474 -0.16263,-1.78063 -0.093,-3.25753 l 0.12659,-2.68526 26.66504,0 26.66504,0 0,3.14941 0,3.14942 -26.57204,0.10812 c -22.11688,0.09 -26.60885,0.0122 -26.79163,-0.46416 z m -26.95027,-11.71671 0.10886,-21.10108 53.54004,0 53.54004,0 0.10888,21.13112 c 0.0955,18.52381 0.18658,21.11445 0.73865,20.99609 0.99004,-0.21226 33.33361,-25.68834 33.35604,-26.27358 0.0209,-0.54499 -86.99856,-66.03429 -87.74361,-66.03429 -0.7454,0 -87.76452,65.48945 -87.74308,66.03429 0.0241,0.61294 32.69409,26.32791 33.46429,26.3402 0.40653,0.006 0.54494,-4.6288 0.62989,-21.09275 z"
           id="path4015"
           style="fill:#ffffff;fill-opacity:1" />
        <path
           d="m 372.60992,284.14682 c 0,-63.61453 0.0392,-67.21555 0.73486,-67.47937 0.9679,-0.36707 104.6683,-78.0658 105.57268,-79.10156 0.88113,-1.00912 1.50379,-1.00912 2.38492,0 0.90438,1.03576 104.60478,78.73449 105.57268,79.10156 0.69564,0.26382 0.73486,3.86484 0.73486,67.47937 l 0,67.20068 -107.5,0 -107.5,0 0,-67.20068 z m 190.85449,53.44695 c 0,-0.75159 -58.15214,-50.49432 -59.03078,-50.49432 -0.40104,0 -6.03793,4.17 -12.52643,9.26668 l -11.79728,9.26666 -11.79728,-9.26666 c -6.4885,-5.09668 -12.12586,-9.26668 -12.52748,-9.26668 -0.53323,0 -54.68898,45.85732 -58.76448,49.75983 -0.31602,0.30262 -0.4463,0.75777 -0.28951,1.01146 0.44214,0.71541 166.73324,0.43916 166.73324,-0.27697 z m -147.3194,-33.76949 c 16.13242,-13.79669 28.65125,-24.80159 28.66574,-25.19912 0.03,-0.82161 -56.99651,-45.82735 -58.33668,-46.03978 -0.84466,-0.13388 -0.84657,-0.0259 -0.84657,47.90609 0,26.42215 0.12069,48.16097 0.26821,48.30849 0.14752,0.14752 0.56996,0.0994 0.93875,-0.10704 0.3688,-0.20639 13.55854,-11.39728 29.31055,-24.86864 z m 158.44733,-23.28761 c 0,-47.97734 -0.002,-48.08517 -0.84657,-47.95129 -1.43145,0.2269 -58.42474,45.26822 -58.27842,46.05696 0.0703,0.37871 12.41005,11.23818 27.42178,24.13217 29.63764,25.45659 30.78758,26.41353 31.3346,26.07546 0.20806,-0.12859 0.36861,-21.17162 0.36861,-48.3133 z m -74.40659,-6.71705 c 10.78373,-8.4587 19.84479,-15.67792 20.13567,-16.04274 0.41218,-0.51693 0.50484,-5.11506 0.41992,-20.83881 l -0.10896,-20.17553 -40.52246,0 -40.52246,0 -0.10907,20.08124 c -0.06,11.04469 0.0345,20.33498 0.20996,20.64511 0.47933,0.84716 39.70578,31.65727 40.34115,31.68564 0.30221,0.0135 9.37252,-6.89622 20.15625,-15.35491 z M 453.829,263.01205 c -0.12202,-0.31797 -0.16388,-1.59492 -0.093,-2.83765 l 0.12883,-2.25952 26.24512,0 26.24512,0 0,2.72949 0,2.7295 -26.1521,0.10816 c -21.89164,0.0905 -26.18823,0.014 -26.37394,-0.46998 z m 0,-13.4375 c -0.12202,-0.31797 -0.16388,-1.59492 -0.093,-2.83765 l 0.12883,-2.25952 26.24512,0 26.24512,0 0,2.72949 0,2.7295 -26.1521,0.10816 c -21.89164,0.0905 -26.18823,0.014 -26.37394,-0.46998 z m 0,-13.4375 c -0.12202,-0.31797 -0.16388,-1.59492 -0.093,-2.83765 l 0.12883,-2.25952 26.24512,0 26.24512,0 0,2.72949 0,2.7295 -26.1521,0.10816 c -21.89164,0.0905 -26.18823,0.014 -26.37394,-0.46998 z m -27.04916,-10.80099 0.20996,-21.17118 53.12012,0 53.12012,0 0.20996,21.20606 c 0.18538,18.72307 0.28547,21.20098 0.85484,21.16273 0.58394,-0.0392 31.20044,-23.7777 33.49566,-25.97083 0.93693,-0.89526 0.9434,-0.95056 0.20996,-1.79555 -0.41622,-0.47951 -20.12565,-15.39247 -43.79874,-33.1399 -30.22785,-22.66145 -43.35453,-32.26806 -44.0918,-32.26806 -0.73727,0 -13.86395,9.60661 -44.0918,32.26806 -23.67309,17.74743 -43.3821,32.65986 -43.79779,33.13873 -0.72779,0.8384 -0.72779,0.89815 0,1.61224 2.05118,2.01256 33.52641,26.40304 33.90826,26.27586 0.29692,-0.0989 0.50998,-7.07324 0.65125,-21.31816 z"
           id="path4013"
           style="fill:#ffffff;fill-opacity:1" />
      </g>
      <path
         d="m 318.99543,257.75283 -88.24607,31.32542 -88.24607,31.32543 16.99443,-92.08605 16.99441,-92.08605 71.25165,60.76063 z"
         transform="translate(-43.886525,36.141844)"
         id="path5027"
         style="fill:none;stroke:none" />
      <path
         d="m 224.26912,257.6047 c 0,13.22999 19.84497,39.68995 66.14992,39.68995 v -26.45996 l 39.68995,39.68995 -39.68995,39.68995 v -26.45997 c -36.47279,0 -66.14992,-29.67713 -66.14992,-66.14992 z"
         id="path5083"
         style="fill:#ffffff;fill-opacity:1" />
    </g>
  </g>
</svg>
