<?xml version="1.0" encoding="UTF-8" standalone="no"?>
<!-- Created with Inkscape (http://www.inkscape.org/) -->

<svg
   xmlns:dc="http://purl.org/dc/elements/1.1/"
   xmlns:cc="http://creativecommons.org/ns#"
   xmlns:rdf="http://www.w3.org/1999/02/22-rdf-syntax-ns#"
   xmlns:svg="http://www.w3.org/2000/svg"
   xmlns="http://www.w3.org/2000/svg"
   version="1.1"
   width="400"
   height="400"
   id="svg2985">
  <defs
     id="defs2987">
    <filter
       color-interpolation-filters="sRGB"
       id="filter3982">
      <feFlood
         result="flood"
         flood-color="rgb(0,0,0)"
         flood-opacity="0.75"
         id="feFlood3984" />
      <feComposite
         in2="SourceGraphic"
         operator="in"
         in="flood"
         result="composite1"
         id="feComposite3986" />
      <feGaussianBlur
         result="blur"
         stdDeviation="4"
         id="feGaussianBlur3988" />
      <feOffset
         result="offset"
         dy="0"
         dx="-2.77556e-17"
         id="feOffset3990" />
      <feComposite
         in2="offset"
         operator="over"
         in="SourceGraphic"
         result="composite2"
         id="feComposite3992" />
    </filter>
  </defs>
  <metadata
     id="metadata2990">
    <rdf:RDF>
      <cc:Work
         rdf:about="">
        <dc:format>image/svg+xml</dc:format>
        <dc:type
           rdf:resource="http://purl.org/dc/dcmitype/StillImage" />
        <dc:title></dc:title>
      </cc:Work>
    </rdf:RDF>
  </metadata>
  <g
     transform="translate(0,352)"
     id="layer1">
    <g
       id="text2995"
       style="font-size:24px;font-style:normal;font-variant:normal;font-weight:normal;font-stretch:normal;line-height:125%;letter-spacing:0px;word-spacing:0px;writing-mode:lr-tb;fill:#000000;fill-opacity:1;stroke:none;font-family:Open Sans;-inkscape-font-specification:Sans" />
    <path
       d="M 234.85714,204.85715 C 234.85714,224.26601 218.99523,240 199.42857,240 179.86191,240 164,224.26601 164,204.85715 c 0,-19.40887 15.86191,-35.14286 35.42857,-35.14286 19.56666,0 35.42857,15.73399 35.42857,35.14286 z m -13.79571,-3.28938 c -1.02034,0 -2.65289,0.16869 -4.35346,0.43859 2.31277,-5.12804 3.02701,-6.61248 3.5712,-7.42218 1.87062,-0.26989 3.91131,-0.57353 6.39414,-0.57353 0.68023,0 1.49651,0.0337 2.89098,0.16869 -0.40814,-1.95676 -1.25843,-3.10382 -2.31278,-3.10382 -1.53052,0 -5.98601,0.74222 -11.66592,0.74222 -1.36046,0 -2.0747,-0.0337 -2.959,-0.16869 -0.13604,0.33737 -0.27209,0.94464 -0.27209,1.28201 0,1.24828 0.98633,2.12544 2.55086,2.19292 -0.54418,2.59776 -1.08837,4.14968 -2.41481,7.62459 -1.56453,0.37111 -2.75493,0.70848 -2.99301,0.94464 0.30611,0.77596 1.02035,1.38323 2.00668,1.68686 -2.10871,5.49915 -3.46917,8.70418 -4.25143,10.32357 0.95232,1.51817 2.00667,2.56402 3.02702,2.96886 3.84329,-0.67474 5.84998,-0.87716 8.87698,-0.87716 2.27876,0 3.50318,0.0337 4.7616,0.0675 0.068,-0.30363 0.068,-0.641 0.068,-0.9109 0,-1.04585 -0.37412,-1.95675 -0.8843,-2.69897 -4.08135,0.2699 -7.78861,0.84343 -11.46185,1.58564 0.068,-1.31574 1.46249,-5.6341 3.53719,-10.42477 1.80261,-0.23616 3.8773,-0.67475 5.81596,-0.67475 0.98633,0 1.70057,0.0675 2.27876,0.16869 0.10204,-0.2699 0.17006,-0.70848 0.17006,-1.04585 0,-1.4507 -0.8843,-2.29413 -2.3808,-2.29413 m -15.79193,-8.83913 c -2.31278,4.35209 -4.52352,8.73794 -6.73426,13.29244 -0.85029,0.0675 -2.04069,0.13494 -2.89098,0.13494 -1.25842,0 -2.55085,-0.16868 -3.70724,-0.67474 2.00667,-2.76644 6.19009,-7.7258 9.28512,-11.23447 -1.29244,-1.07959 -2.92498,-1.78807 -4.52352,-2.26039 -2.31278,4.92563 -5.40782,9.81753 -8.97902,13.83223 1.63255,1.95676 4.48951,2.29413 6.97234,2.29413 0.8843,0 2.14272,-0.13495 2.99301,-0.23616 -1.1904,2.59776 -2.17673,5.16178 -2.99301,7.86075 0.95232,1.04585 2.27877,1.21454 3.63923,1.24828 0.78226,-3.54239 2.00667,-6.88238 3.63922,-10.18862 l 2.6869,-0.97838 c -0.034,-0.26989 -0.17005,-0.53979 -0.34011,-0.74221 l -1.66656,0.33737 c 1.90464,-3.71107 3.97934,-7.25349 6.36014,-10.52599 -0.78227,-1.1808 -2.3808,-1.85554 -3.74126,-2.15918 m -22.134,9.14277 c -1.08837,0 -2.78894,0.20242 -4.55753,0.47232 2.55085,-5.70157 3.19707,-7.05107 3.74125,-7.86076 1.73459,-0.26989 3.63923,-0.50605 5.91799,-0.50605 0.68023,0 1.49651,0.0337 2.92499,0.16868 -0.44215,-1.95675 -1.29244,-3.10382 -2.34679,-3.10382 -1.53052,0 -5.98601,0.74222 -11.66592,0.74222 -1.36046,0 -2.0747,-0.0337 -2.92498,-0.16868 -0.17006,0.33737 -0.30611,0.94464 -0.30611,1.28201 0,1.31575 1.15639,2.19291 2.89097,2.19291 l 0.17006,0 c -0.57819,2.73271 -1.25842,4.52079 -2.58487,8.02944 -1.4965,0.33737 -2.61888,0.64101 -2.85696,0.87717 0.27209,0.74221 0.95232,1.34948 1.87063,1.65312 -2.44882,6.20763 -3.43515,8.63671 -4.11538,10.05367 1.05435,1.72059 2.17673,2.63149 3.70724,2.96886 0.71424,-4.04844 2.00668,-8.16438 4.04736,-12.92132 1.83662,-0.23616 3.97934,-0.70848 5.98601,-0.70848 0.98634,0 1.70058,0.0675 2.27877,0.16868 0.13605,-0.26989 0.17006,-0.70848 0.17006,-1.04585 0,-1.45069 -0.8843,-2.29412 -2.34679,-2.29412"
       transform="matrix(0.70564519,0,0,0.71138212,59.274186,-297.73171)"
       id="path2993"
       style="fill:#ffffff;fill-opacity:1;fill-rule:nonzero;stroke:#000000;stroke-opacity:0.39215686;filter:url(#filter3982)" />
    <path
       d=""
       transform="translate(0,-352)"
       id="path3790"
       style="fill:#00426e;fill-opacity:1;fill-rule:nonzero;stroke:#ffffff;stroke-width:0.30304575;stroke-miterlimit:4;stroke-opacity:1;stroke-dasharray:none" />
    <path
       d="m 180.68817,209.51196 c -0.63893,-0.29839 -1.05363,-0.64855 -1.51922,-1.28282 l -0.36807,-0.50141 0.60822,-1.43858 c 0.77243,-1.82695 2.23872,-5.56134 2.23872,-5.70164 0,-0.0586 -0.13658,-0.16316 -0.30351,-0.23231 -0.30369,-0.12579 -0.90867,-0.73136 -0.90867,-0.90955 0,-0.052 0.32956,-0.19079 0.73236,-0.30836 0.4028,-0.11757 0.84403,-0.24702 0.98051,-0.28766 0.21282,-0.0634 0.33027,-0.30075 0.82479,-1.66695 0.5908,-1.63223 1.05891,-3.16968 1.16601,-3.82966 0.0578,-0.35616 0.0481,-0.37176 -0.23068,-0.3723 -0.52712,-0.001 -1.08454,-0.21718 -1.41674,-0.54938 -0.39315,-0.39315 -0.4955,-0.74196 -0.37705,-1.28505 l 0.0886,-0.40605 2.6264,-0.0365 c 1.44452,-0.0201 3.37643,-0.10745 4.29315,-0.19416 0.91671,-0.0867 2.12179,-0.18594 2.67795,-0.22053 0.99161,-0.0617 1.01743,-0.0576 1.33329,0.20814 0.29484,0.2481 0.73156,1.00863 0.88283,1.53743 0.0612,0.21393 0.0516,0.21505 -1.88595,0.21973 -1.18761,0.003 -2.39732,0.0667 -3.10042,0.16348 -0.63412,0.0873 -1.16263,0.17028 -1.17447,0.18434 -0.28197,0.33486 -2.6362,5.50017 -2.54735,5.58902 0.0298,0.0298 0.6615,-0.0165 1.40381,-0.10288 1.72439,-0.20064 2.06381,-0.19551 2.58039,0.039 0.59524,0.27025 0.94096,1.03369 0.78651,1.73686 l -0.0696,0.31694 -0.76179,-0.0644 c -0.84828,-0.0717 -2.46535,0.0552 -4.0498,0.31786 l -1.04567,0.17333 -0.34778,0.85863 c -1.00931,2.49189 -1.83211,5.10236 -2.26853,7.19734 -0.12442,0.59725 -0.25251,1.08547 -0.28466,1.08493 -0.0322,-5.5e-4 -0.28573,-0.10714 -0.56353,-0.23687 z"
       transform="translate(0,-352)"
       id="path3792"
       style="fill:#00426e;fill-opacity:1;fill-rule:nonzero;stroke:#ffffff;stroke-width:0.30304575;stroke-miterlimit:4;stroke-opacity:1;stroke-dasharray:none" />
    <path
       d="m 198.16381,208.46974 c -0.40289,-0.0887 -0.81473,-0.27231 -1.12942,-0.50365 l -0.32131,-0.2362 0.43296,-1.28813 c 0.23813,-0.70848 0.71442,-1.96406 1.05843,-2.79019 0.34401,-0.82612 0.61196,-1.51508 0.59545,-1.53101 -0.0165,-0.0159 -0.43913,0.015 -0.93915,0.0688 -1.72649,0.18575 -3.84508,-0.0813 -4.88432,-0.61569 -0.20266,-0.10421 -0.54895,-0.3464 -0.76953,-0.53822 l -0.40106,-0.34875 0.51154,-0.59498 c 1.76832,-2.05677 3.76931,-5.14244 5.15592,-7.95082 0.58318,-1.18116 0.59271,-1.19328 0.89252,-1.13453 0.38348,0.0751 2.24548,0.9946 2.56016,1.26421 l 0.23681,0.20289 -1.65199,1.9459 c -2.70955,3.19161 -4.83203,5.84256 -4.83203,6.03516 0,0.0419 0.2841,0.15695 0.63134,0.2556 0.74569,0.21185 2.27158,0.30594 3.33909,0.20591 l 0.76102,-0.0713 2.34988,-4.69334 2.34987,-4.69334 0.30991,0.065 c 0.54302,0.11387 1.51997,0.62907 1.9086,1.00651 l 0.37604,0.36521 -0.64006,0.92713 c -1.36772,1.98113 -3.94055,6.43815 -3.79746,6.57849 0.0211,0.0207 0.27963,-0.0102 0.57444,-0.0687 0.38028,-0.0755 0.56762,-0.0748 0.64476,0.002 0.20795,0.20795 -1e-4,0.37658 -0.8217,0.66601 -0.50012,0.17617 -0.88174,0.37562 -0.9664,0.50507 -0.51749,0.79131 -1.84251,4.35359 -2.26823,6.09807 l -0.22803,0.93439 -0.41801,-0.0117 c -0.2299,-0.006 -0.50892,-0.0317 -0.62004,-0.0562 z"
       transform="translate(0,-352)"
       id="path3794"
       style="fill:#00426e;fill-opacity:1;fill-rule:nonzero;stroke:#ffffff;stroke-width:0.30304575;stroke-miterlimit:4;stroke-opacity:1;stroke-dasharray:none" />
    <path
       d="m 207.09311,209.40957 c -0.44435,-0.33197 -0.98921,-0.93569 -1.33394,-1.47803 -0.15283,-0.24043 -0.14102,-0.29614 0.24628,-1.16168 0.55567,-1.24184 2.51243,-6.1843 2.51243,-6.346 0,-0.0718 -0.17981,-0.20993 -0.39956,-0.30689 -0.36968,-0.1631 -0.91364,-0.68003 -0.91364,-0.86824 0,-0.10619 0.38588,-0.25558 1.30233,-0.50416 0.41071,-0.1114 0.75559,-0.21502 0.76639,-0.23026 0.10297,-0.14524 1.22216,-3.4794 1.41648,-4.21983 0.32023,-1.22019 0.31993,-1.3132 -0.004,-1.3132 -0.3524,0 -0.99364,-0.34261 -1.24912,-0.6674 -0.14605,-0.18568 -0.21115,-0.41336 -0.2102,-0.73518 0.003,-0.93462 -0.0974,-0.88462 1.67653,-0.83696 1.63357,0.0439 4.44749,-0.0958 6.85788,-0.34037 1.97567,-0.20049 2.10045,-0.19452 2.47209,0.11819 0.33593,0.28267 0.74335,1.00141 0.85145,1.50207 l 0.0654,0.30305 -1.99753,0 c -1.79405,0 -4.21414,0.18709 -4.45013,0.34403 -0.0496,0.033 -0.20684,0.26459 -0.34932,0.5146 -0.35324,0.61984 -2.22583,4.75389 -2.17595,4.80377 0.022,0.022 0.53736,-0.0262 1.14524,-0.10706 2.02327,-0.26925 2.8036,-0.17439 3.25171,0.39529 0.24124,0.30669 0.37394,0.93569 0.28387,1.34553 l -0.0615,0.27998 -1.53796,0.0147 c -1.33808,0.0128 -4.02062,0.31295 -4.17477,0.4671 -0.0988,0.0988 -1.25424,3.04912 -1.63684,4.17954 -0.47637,1.40748 -0.82763,2.69549 -0.82763,3.03483 0,0.27525 0.0633,0.28102 0.9783,0.0892 1.16611,-0.24448 3.14359,-0.54416 4.67856,-0.70901 0.80559,-0.0865 1.67612,-0.18089 1.93449,-0.20971 l 0.46977,-0.0524 0.20732,0.43146 c 0.27711,0.57673 0.4378,1.33892 0.36462,1.72949 l -0.0596,0.31822 -2.07412,-0.0344 c -2.14195,-0.0355 -3.98908,0.0744 -5.7417,0.34164 -1.89354,0.28871 -1.7671,0.2938 -2.2834,-0.0919 z"
       transform="translate(0,-352)"
       id="path3796"
       style="fill:#00426e;fill-opacity:1;fill-rule:nonzero;stroke:#ffffff;stroke-width:0.30304575;stroke-miterlimit:4;stroke-opacity:1;stroke-dasharray:none" />
  </g>
</svg>
