<?xml version="1.0" encoding="UTF-8" standalone="no"?>
<!-- Created with Inkscape (http://www.inkscape.org/) -->

<svg
   xmlns:dc="http://purl.org/dc/elements/1.1/"
   xmlns:cc="http://creativecommons.org/ns#"
   xmlns:rdf="http://www.w3.org/1999/02/22-rdf-syntax-ns#"
   xmlns:svg="http://www.w3.org/2000/svg"
   xmlns="http://www.w3.org/2000/svg"
   xmlns:sodipodi="http://sodipodi.sourceforge.net/DTD/sodipodi-0.dtd"
   xmlns:inkscape="http://www.inkscape.org/namespaces/inkscape"
   width="160"
   height="260"
   id="svg5521"
   version="1.1"
   inkscape:version="0.48.4 r9939"
   sodipodi:docname="clipboard.svg">
  <defs
     id="defs5523" />
  <sodipodi:namedview
     id="base"
     pagecolor="#ffffff"
     bordercolor="#666666"
     borderopacity="1.0"
     inkscape:pageopacity="0.0"
     inkscape:pageshadow="2"
     inkscape:zoom="2.8"
     inkscape:cx="177.81437"
     inkscape:cy="59.006648"
     inkscape:document-units="px"
     inkscape:current-layer="layer1"
     showgrid="false"
     inkscape:window-width="1600"
     inkscape:window-height="845"
     inkscape:window-x="0"
     inkscape:window-y="30"
     inkscape:window-maximized="1" />
  <metadata
     id="metadata5526">
    <rdf:RDF>
      <cc:Work
         rdf:about="">
        <dc:format>image/svg+xml</dc:format>
        <dc:type
           rdf:resource="http://purl.org/dc/dcmitype/StillImage" />
        <dc:title></dc:title>
      </cc:Work>
    </rdf:RDF>
  </metadata>
  <g
     inkscape:label="Layer 1"
     inkscape:groupmode="layer"
     id="layer1"
     transform="translate(0,-792.36218)">
    <path
       inkscape:connector-curvature="0"
       id="path4798"
       style="fill:#ffffff;fill-opacity:1;fill-rule:nonzero;stroke:none"
       d="m 55.318711,978.25608 68.315689,0 0,-6.07178 -68.315689,0 0,6.07178 z m -19.215602,-0.75917 10.626973,0 0,-10.62698 -10.626973,0 0,10.62698 z m -2.276347,2.27751 15.181689,0 0,-15.18169 -15.181689,0 0,15.18169 z m 21.491949,-28.84504 68.315689,0 0,-6.07269 -68.315689,0 0,6.07269 z m -19.215602,-0.75917 10.626973,0 0,-10.62605 -10.626973,0 0,10.62605 z m -2.276347,2.27751 15.181689,0 0,-15.18075 -15.181689,0 0,15.18075 z m 21.491949,-28.84387 68.315689,0 0,-6.07223 -68.315689,0 0,6.07223 z m -19.215602,-0.75917 10.626973,0 0,-10.62651 -10.626973,0 0,10.62651 z m -2.276347,2.27752 15.181689,0 0,-15.18076 -15.181689,0 0,15.18076 z m 21.491949,-30.36105 68.315689,0 0,-6.07405 -68.315689,0 0,6.07405 z m -19.215602,-0.76034 10.626973,0 0,-10.62698 -10.626973,0 0,10.62698 z m -2.276347,2.27751 15.181689,0 0,-15.18169 -15.181689,0 0,15.18169 z M 143.00137,1001.4898 c 0,2.4905 -1.88331,4.5106 -4.20762,4.5106 l -117.588669,0 c -2.323137,0 -4.206446,-2.0201 -4.206446,-4.5106 l 0,-136.46505 c 0,-2.49275 1.883309,-4.50941 4.206446,-4.50941 l 117.588669,0 c 2.32431,0 4.20762,2.01666 4.20762,4.50941 l 0,136.46505 M 113.36908,851.16781 c 0,-4.01812 -0.37082,-10.7103 -3.64614,-10.7103 l -59.333586,0 c -3.067104,0 -3.800541,6.72493 -3.754921,10.69626 l 66.734647,0.014 m -10.01313,-9.73472 c 0,-2.81327 -0.25734,-7.49581 -2.55007,-7.49581 l -41.53456,0 c -2.146504,0 -2.660028,4.7036 -2.624935,7.48411 l 46.709565,0.0117 M 91.036077,830.9275 c 0,2.68342 -2.414379,4.85566 -5.39609,4.85566 l -10.785161,0 c -2.980542,0 -5.39609,-2.17224 -5.39609,-4.85566 l 0,0 c 0,-2.67992 2.415548,-4.85449 5.39609,-4.85449 l 10.785161,0 c 2.981711,0 5.39609,2.17457 5.39609,4.85449 l 0,0 m 62.592533,175.0753 c 0,6.9859 -5.42416,12.6486 -12.12336,12.6486 l -123.011666,0 c -6.703878,0 -12.122194,-5.6627 -12.122194,-12.6486 l 0,-145.49214 c 0,-6.98579 5.418316,-12.64625 12.122194,-12.64625 l 123.011666,0 c 6.6992,0 12.12336,5.66046 12.12336,12.64625 l 0,145.49214" />
    <path
       id="path5468-9"
       style="fill:#0060a1;fill-opacity:1;stroke:#0060a1;stroke-width:1.32342922999999990px;stroke-linecap:butt;stroke-linejoin:miter;stroke-opacity:1"
       d="m 52.418621,971.52889 73.419589,0 m -73.729378,-27.26128 73.419588,0 m -73.109799,-27.57107 73.419599,0 m -74.503842,-28.34879 73.419582,0"
       inkscape:connector-curvature="0" />
  </g>
</svg>
