<?xml version="1.0" encoding="UTF-8" standalone="no"?>
<!-- Created with Inkscape (http://www.inkscape.org/) -->

<svg
   xmlns:dc="http://purl.org/dc/elements/1.1/"
   xmlns:cc="http://creativecommons.org/ns#"
   xmlns:rdf="http://www.w3.org/1999/02/22-rdf-syntax-ns#"
   xmlns:svg="http://www.w3.org/2000/svg"
   xmlns="http://www.w3.org/2000/svg"
   xmlns:sodipodi="http://sodipodi.sourceforge.net/DTD/sodipodi-0.dtd"
   xmlns:inkscape="http://www.inkscape.org/namespaces/inkscape"
   width="400"
   height="300"
   id="svg3035"
   version="1.1"
   inkscape:version="0.48.4 r9939"
   sodipodi:docname="divider_logo.svg">
  <defs
     id="defs3037">
    <inkscape:path-effect
       effect="skeletal"
       id="path-effect4016"
       is_visible="true"
       pattern="m -438.31429,-198.94925 10,5 0,-10 z"
       copytype="single_stretched"
       prop_scale="1"
       scale_y_rel="false"
       spacing="0"
       normal_offset="0"
       tang_offset="0"
       prop_units="false"
       vertical_pattern="false"
       fuse_tolerance="0" />
  </defs>
  <sodipodi:namedview
     id="base"
     pagecolor="#141414"
     bordercolor="#666666"
     borderopacity="1.0"
     inkscape:pageopacity="0.55686275"
     inkscape:pageshadow="2"
     inkscape:zoom="0.84125"
     inkscape:cx="379.25128"
     inkscape:cy="175.92125"
     inkscape:current-layer="layer1"
     inkscape:document-units="px"
     showgrid="false"
     inkscape:window-width="1600"
     inkscape:window-height="845"
     inkscape:window-x="0"
     inkscape:window-y="30"
     inkscape:window-maximized="1"
     showguides="true"
     inkscape:guide-bbox="true">
    <sodipodi:guide
       orientation="1,0"
       position="200.29718,355.42348"
       id="guide4399" />
  </sodipodi:namedview>
  <metadata
     id="metadata3040">
    <rdf:RDF>
      <cc:Work
         rdf:about="">
        <dc:format>image/svg+xml</dc:format>
        <dc:type
           rdf:resource="http://purl.org/dc/dcmitype/StillImage" />
        <dc:title />
      </cc:Work>
    </rdf:RDF>
  </metadata>
  <g
     id="layer1"
     inkscape:label="Layer 1"
     inkscape:groupmode="layer"
     transform="translate(0,-300)">
    <path
       style="opacity:0.7;fill:none;stroke:#ffffff;stroke-width:1;stroke-linecap:butt;stroke-linejoin:miter;stroke-opacity:1"
       d="m 10.501438,595.04299 378.997122,0"
       id="path3895"
       inkscape:connector-curvature="0" />
    <path
       style="opacity:0.7;fill:none;stroke:#ffffff;stroke-width:1;stroke-linecap:butt;stroke-linejoin:miter;stroke-opacity:1"
       d="m 76.635325,580.09665 246.729345,0"
       id="path3895-3"
       inkscape:connector-curvature="0" />
    <path
       style="fill:#ffffff;fill-opacity:0;fill-rule:evenodd;stroke:none"
       d="m 201.90932,524.01119 c -20.04476,-29.09156 -40.3108,-57.75633 -60.79813,-85.99432 1e-5,0 1e-5,0 2e-5,0 39.1699,0.31084 77.84326,0.63037 116.02007,0.95859 -19.58057,27.83339 -39.3787,55.26024 -59.39437,82.28055 l 8.34482,5.51034 c 17.75745,-30.18307 35.73244,-59.95961 53.92499,-89.32961 -40.56611,-0.0249 -80.63568,-0.0585 -120.2087,-0.10075 0,0 -1e-5,0 -1e-5,0 20.48248,29.31852 41.18625,58.21025 62.11131,86.6752 z"
       id="path4014"
       inkscape:path-effect="#path-effect4016"
       inkscape:original-d="M 201.90932,524.01119 140.4546,437.67643 258.569,438.2061 201.90932,524.01118"
       inkscape:connector-curvature="0" />
    <path
       style="opacity:0.7;fill:none;stroke:#ffffff;stroke-width:0.75411087;stroke-linecap:butt;stroke-linejoin:miter;stroke-opacity:1"
       d="m 200,517.23057 0,77.79573"
       id="path3078-0"
       inkscape:connector-curvature="0" />
    <g
       style="font-size:40px;font-style:normal;font-variant:normal;font-weight:normal;font-stretch:normal;line-height:125%;letter-spacing:0px;word-spacing:0px;fill:#ffffff;fill-opacity:1;stroke:none;font-family:Kaushan Script;-inkscape-font-specification:Kaushan Script"
       id="text3020"
       transform="matrix(1.25,0,0,1.25,-600,-401.85134)">
      <path
         id="path3799"
         style="fill:#ffffff;fill-opacity:1"
         d="m 665.4419,661.39024 c -1.2,0 -3.12001,0.2 -5.12,0.52 2.71999,-6.08 3.56,-7.84 4.2,-8.8 2.19999,-0.32 4.6,-0.68 7.52,-0.68 0.8,0 1.76,0.04 3.4,0.2 -0.48,-2.32 -1.48,-3.68 -2.72,-3.68 -1.8,0 -7.04001,0.88 -13.72,0.88 -1.6,0 -2.44,-0.04 -3.48,-0.2 -0.16,0.4 -0.32,1.12 -0.32,1.52 0,1.48 1.16,2.52 3,2.6 -0.64,3.07999 -1.28,4.92 -2.84,9.04 -1.84,0.44 -3.24,0.84 -3.52,1.12 0.36,0.92 1.2,1.64 2.36,2 -2.48,6.51999 -4.08,10.32 -5,12.24 1.12,1.8 2.36,3.04 3.56,3.52 4.51999,-0.8 6.88,-1.04 10.44,-1.04 2.67999,0 4.12,0.04 5.6,0.08 0.08,-0.36 0.08,-0.76 0.08,-1.08 0,-1.24 -0.44,-2.32 -1.04,-3.2 -4.8,0.32 -9.16001,1 -13.48,1.88 0.08,-1.56 1.72,-6.68001 4.16,-12.36 2.11999,-0.28 4.56,-0.8 6.84,-0.8 1.16,0 2,0.08 2.68,0.2 0.12,-0.32 0.2,-0.84 0.2,-1.24 0,-1.72 -1.04,-2.72 -2.8,-2.72 m -18.5725,-10.48 c -2.72,5.15999 -5.32001,10.36 -7.92,15.76 -1,0.08 -2.4,0.16 -3.4,0.16 -1.48,0 -3,-0.2 -4.36,-0.8 2.35999,-3.28 7.28,-9.16001 10.92,-13.32 -1.52,-1.28 -3.44,-2.12 -5.32,-2.68 -2.72,5.83999 -6.36001,11.64 -10.56,16.4 1.92,2.31999 5.28,2.72 8.2,2.72 1.04,0 2.52,-0.16 3.52,-0.28 -1.4,3.07999 -2.56,6.12 -3.52,9.32 1.12,1.24 2.68,1.44 4.28,1.48 0.92,-4.2 2.36,-8.16001 4.28,-12.08 l 3.16,-1.16 c -0.04,-0.32 -0.2,-0.64 -0.4,-0.88 l -1.96,0.4 c 2.23999,-4.4 4.68,-8.60001 7.48,-12.48 -0.92,-1.4 -2.8,-2.2 -4.4,-2.56 m -26.03125,10.84 c -1.28,0 -3.28001,0.24 -5.36,0.56 2.99999,-6.76 3.76,-8.36 4.4,-9.32 2.03999,-0.32 4.28,-0.6 6.96,-0.6 0.8,0 1.76,0.04 3.44,0.2 -0.52,-2.32 -1.52,-3.68 -2.76,-3.68 -1.8,0 -7.04001,0.88 -13.72,0.88 -1.6,0 -2.44,-0.04 -3.44,-0.2 -0.2,0.4 -0.36,1.12 -0.36,1.52 0,1.56 1.36,2.6 3.4,2.6 l 0.2,0 c -0.68,3.23999 -1.48,5.36 -3.04,9.52 -1.76,0.4 -3.08,0.76 -3.36,1.04 0.32,0.88 1.12,1.6 2.2,1.96 -2.88,7.35999 -4.04,10.24 -4.84,11.92 1.24,2.03999 2.56,3.12 4.36,3.52 0.84,-4.8 2.36,-9.68001 4.76,-15.32 2.15999,-0.28 4.68,-0.84 7.04,-0.84 1.16,0 2,0.08 2.68,0.2 0.16,-0.32 0.2,-0.84 0.2,-1.24 0,-1.72 -1.04,-2.72 -2.76,-2.72 m 68.71372,3.53996 c 0,27.36674 -22.18513,49.55187 -49.55187,49.55187 -27.36673,0 -49.55187,-22.18513 -49.55187,-49.55187 0,-27.36673 22.18514,-49.55186 49.55187,-49.55186 27.36674,0 49.55187,22.18513 49.55187,49.55186 z"
         inkscape:connector-curvature="0" />
    </g>
    <path
       sodipodi:type="arc"
       style="opacity:0.7;fill:none;stroke:#ffffff;stroke-width:4.51179647;stroke-miterlimit:4;stroke-opacity:1;stroke-dasharray:none"
       id="path4401"
       sodipodi:cx="200.89153"
       sodipodi:cy="190.78752"
       sodipodi:rx="197.32541"
       sodipodi:ry="144.42793"
       d="m 398.21693,190.78752 c 0,79.76535 -88.34559,144.42793 -197.3254,144.42793 -108.979819,0 -197.3254137,-64.66258 -197.3254137,-144.42793 0,-79.76534 88.3455947,-144.427931 197.3254137,-144.427931 108.97981,0 197.3254,64.662591 197.3254,144.427931 z"
       transform="matrix(0.37924041,0,0,0.51813917,123.81382,330.90693)" />
    <path
       sodipodi:type="arc"
       style="opacity:0.7;fill:none;stroke:#ffffff;stroke-width:3.88446426;stroke-miterlimit:4;stroke-opacity:1;stroke-dasharray:none"
       id="path4401-0"
       sodipodi:cx="200.89153"
       sodipodi:cy="190.78752"
       sodipodi:rx="197.32541"
       sodipodi:ry="144.42793"
       d="m 398.21693,190.78752 c 0,79.76535 -88.34559,144.42793 -197.3254,144.42793 -108.979819,0 -197.3254137,-64.66258 -197.3254137,-144.42793 0,-79.76534 88.3455947,-144.427931 197.3254137,-144.427931 108.97981,0 197.3254,64.662591 197.3254,144.427931 z"
       transform="matrix(0.44048687,0,0,0.60181746,111.50992,314.94216)" />
  </g>
</svg>
