<?xml version="1.0" encoding="UTF-8" standalone="no"?>
<!-- Created with Inkscape (http://www.inkscape.org/) -->

<svg
   xmlns:dc="http://purl.org/dc/elements/1.1/"
   xmlns:cc="http://creativecommons.org/ns#"
   xmlns:rdf="http://www.w3.org/1999/02/22-rdf-syntax-ns#"
   xmlns:svg="http://www.w3.org/2000/svg"
   xmlns="http://www.w3.org/2000/svg"
   xmlns:sodipodi="http://sodipodi.sourceforge.net/DTD/sodipodi-0.dtd"
   xmlns:inkscape="http://www.inkscape.org/namespaces/inkscape"
   width="200"
   height="100"
   id="svg6095"
   version="1.1"
   inkscape:version="0.48.4 r9939"
   sodipodi:docname="New document 26">
  <defs
     id="defs6097" />
  <sodipodi:namedview
     id="base"
     pagecolor="#ffffff"
     bordercolor="#666666"
     borderopacity="1.0"
     inkscape:pageopacity="0.0"
     inkscape:pageshadow="2"
     inkscape:zoom="0.35"
     inkscape:cx="-59.285714"
     inkscape:cy="520"
     inkscape:document-units="px"
     inkscape:current-layer="layer1"
     showgrid="false"
     inkscape:window-width="1600"
     inkscape:window-height="845"
     inkscape:window-x="0"
     inkscape:window-y="30"
     inkscape:window-maximized="1" />
  <metadata
     id="metadata6100">
    <rdf:RDF>
      <cc:Work
         rdf:about="">
        <dc:format>image/svg+xml</dc:format>
        <dc:type
           rdf:resource="http://purl.org/dc/dcmitype/StillImage" />
        <dc:title></dc:title>
      </cc:Work>
    </rdf:RDF>
  </metadata>
  <g
     inkscape:label="Layer 1"
     inkscape:groupmode="layer"
     id="layer1"
     transform="translate(0,-952.36218)">
    <path
       inkscape:connector-curvature="0"
       id="path4540"
       style="fill:#ffffff;fill-opacity:1;fill-rule:nonzero;stroke:none"
       d="m 11.800708,1029.0935 c 0,5.03 4.07525,9.1137 9.10937,9.1137 l 0,0 c 5.03475,0 9.11425,-4.0837 9.11425,-9.1137 l 0,-53.46257 c 0,-5.03375 -4.0795,-9.1125 -9.11425,-9.1125 l 0,0 c -5.03412,0 -9.10937,4.07875 -9.10937,9.1125 l 0,53.46257 m 19.63575,9.1137 c 0,5.7 4.62262,10.325 10.32912,10.325 l 0,0 c 5.70025,0 10.32325,-4.625 10.32325,-10.325 l 0,-71.68752 c 0,-5.70375 -4.623,-10.3275 -10.32325,-10.3275 l 0,0 c -5.7065,0 -10.32912,4.62375 -10.32912,10.3275 l 0,71.68752 m 156.764372,-9.1137 c 0,5.03 -4.07625,9.1137 -9.11125,9.1137 l 0,0 c -5.03375,0 -9.115,-4.0837 -9.115,-9.1137 l 0,-53.46257 c 0,-5.03375 4.08125,-9.1125 9.115,-9.1125 l 0,0 c 5.035,0 9.11125,4.07875 9.11125,9.1125 l 0,53.46257 m -19.6375,9.1137 c 0,5.7 -4.6225,10.325 -10.32875,10.325 l 0,0 c -5.70125,0 -10.32375,-4.625 -10.32375,-10.325 l 0,-71.68752 c 0,-5.70375 4.6225,-10.3275 10.32375,-10.3275 l 0,0 c 5.70625,0 10.32875,4.62375 10.32875,10.3275 l 0,71.68752 m 21.0475,-29.0937 10.15284,0 0,-13.50007 -10.15284,0 0,13.50007 z m -189.37450145,0 10.15283945,0 0,-13.50007 -10.15283945,0 0,13.50007 z m 54.76362945,0 90.000002,0 0,-13.50007 -90.000002,0 0,13.50007 z" />
  </g>
</svg>
