<?xml version="1.0" encoding="UTF-8" standalone="no"?>
<!-- Created with Inkscape (http://www.inkscape.org/) -->

<svg
   xmlns:dc="http://purl.org/dc/elements/1.1/"
   xmlns:cc="http://creativecommons.org/ns#"
   xmlns:rdf="http://www.w3.org/1999/02/22-rdf-syntax-ns#"
   xmlns:svg="http://www.w3.org/2000/svg"
   xmlns="http://www.w3.org/2000/svg"
   xmlns:sodipodi="http://sodipodi.sourceforge.net/DTD/sodipodi-0.dtd"
   xmlns:inkscape="http://www.inkscape.org/namespaces/inkscape"
   width="205"
   height="205"
   id="separator"
   version="1.1"
   inkscape:version="0.48.4 r9939"
   sodipodi:docname="f4e.svg">
  <defs
     id="defs3838" />
  <sodipodi:namedview
     id="base"
     pagecolor="#141414"
     bordercolor="#666666"
     borderopacity="1.0"
     inkscape:pageopacity="0.43529412"
     inkscape:pageshadow="2"
     inkscape:zoom="3.0989011"
     inkscape:cx="-121.2552"
     inkscape:cy="81.442883"
     inkscape:current-layer="text3020"
     inkscape:document-units="px"
     showgrid="false"
     inkscape:window-width="1600"
     inkscape:window-height="845"
     inkscape:window-x="0"
     inkscape:window-y="30"
     inkscape:window-maximized="1" />
  <metadata
     id="metadata3841">
    <rdf:RDF>
      <cc:Work
         rdf:about="">
        <dc:format>image/svg+xml</dc:format>
        <dc:type
           rdf:resource="http://purl.org/dc/dcmitype/StillImage" />
        <dc:title></dc:title>
      </cc:Work>
    </rdf:RDF>
  </metadata>
  <g
     id="layer1"
     inkscape:label="Layer 1"
     inkscape:groupmode="layer"
     transform="translate(0,-275)">
    <g
       style="font-size:40px;font-style:normal;font-variant:normal;font-weight:normal;font-stretch:normal;line-height:125%;letter-spacing:0px;word-spacing:0px;fill:#ffffff;fill-opacity:1;stroke:#ffffff;font-family:Kaushan Script;-inkscape-font-specification:Kaushan Script;stroke-opacity:1;stroke-width:0.49551867999999999"
       id="text3020"
       transform="matrix(2.0180873,0,0,2.0180875,-1189.0759,-965.11385)">
      <path
         id="path3799"
         style="fill:#00426e;fill-opacity:1;stroke:#ffffff;stroke-opacity:1;stroke-width:1.48655603000000003"
         d="m 665.4419,661.39024 c -1.2,0 -3.12001,0.2 -5.12,0.52 2.71999,-6.08 3.56,-7.84 4.2,-8.8 2.19999,-0.32 4.6,-0.68 7.52,-0.68 0.8,0 1.76,0.04 3.4,0.2 -0.48,-2.32 -1.48,-3.68 -2.72,-3.68 -1.8,0 -7.04001,0.88 -13.72,0.88 -1.6,0 -2.44,-0.04 -3.48,-0.2 -0.16,0.4 -0.32,1.12 -0.32,1.52 0,1.48 1.16,2.52 3,2.6 -0.64,3.07999 -1.28,4.92 -2.84,9.04 -1.84,0.44 -3.24,0.84 -3.52,1.12 0.36,0.92 1.2,1.64 2.36,2 -2.48,6.51999 -4.08,10.32 -5,12.24 1.12,1.8 2.36,3.04 3.56,3.52 4.51999,-0.8 6.88,-1.04 10.44,-1.04 2.67999,0 4.12,0.04 5.6,0.08 0.08,-0.36 0.08,-0.76 0.08,-1.08 0,-1.24 -0.44,-2.32 -1.04,-3.2 -4.8,0.32 -9.16001,1 -13.48,1.88 0.08,-1.56 1.72,-6.68001 4.16,-12.36 2.11999,-0.28 4.56,-0.8 6.84,-0.8 1.16,0 2,0.08 2.68,0.2 0.12,-0.32 0.2,-0.84 0.2,-1.24 0,-1.72 -1.04,-2.72 -2.8,-2.72 m -18.5725,-10.48 c -2.72,5.15999 -5.32001,10.36 -7.92,15.76 -1,0.08 -2.4,0.16 -3.4,0.16 -1.48,0 -3,-0.2 -4.36,-0.8 2.35999,-3.28 7.28,-9.16001 10.92,-13.32 -1.52,-1.28 -3.44,-2.12 -5.32,-2.68 -2.72,5.83999 -6.36001,11.64 -10.56,16.4 1.92,2.31999 5.28,2.72 8.2,2.72 1.04,0 2.52,-0.16 3.52,-0.28 -1.4,3.07999 -2.56,6.12 -3.52,9.32 1.12,1.24 2.68,1.44 4.28,1.48 0.92,-4.2 2.36,-8.16001 4.28,-12.08 l 3.16,-1.16 c -0.04,-0.32 -0.2,-0.64 -0.4,-0.88 l -1.96,0.4 c 2.23999,-4.4 4.68,-8.60001 7.48,-12.48 -0.92,-1.4 -2.8,-2.2 -4.4,-2.56 m -26.03125,10.84 c -1.28,0 -3.28001,0.24 -5.36,0.56 2.99999,-6.76 3.76,-8.36 4.4,-9.32 2.03999,-0.32 4.28,-0.6 6.96,-0.6 0.8,0 1.76,0.04 3.44,0.2 -0.52,-2.32 -1.52,-3.68 -2.76,-3.68 -1.8,0 -7.04001,0.88 -13.72,0.88 -1.6,0 -2.44,-0.04 -3.44,-0.2 -0.2,0.4 -0.36,1.12 -0.36,1.52 0,1.56 1.36,2.6 3.4,2.6 l 0.2,0 c -0.68,3.23999 -1.48,5.36 -3.04,9.52 -1.76,0.4 -3.08,0.76 -3.36,1.04 0.32,0.88 1.12,1.6 2.2,1.96 -2.88,7.35999 -4.04,10.24 -4.84,11.92 1.24,2.03999 2.56,3.12 4.36,3.52 0.84,-4.8 2.36,-9.68001 4.76,-15.32 2.15999,-0.28 4.68,-0.84 7.04,-0.84 1.16,0 2,0.08 2.68,0.2 0.16,-0.32 0.2,-0.84 0.2,-1.24 0,-1.72 -1.04,-2.72 -2.76,-2.72 m 68.71372,3.53996 c 0,27.36674 -22.18513,49.55187 -49.55187,49.55187 -27.36673,0 -49.55187,-22.18513 -49.55187,-49.55187 0,-27.36673 22.18514,-49.55186 49.55187,-49.55186 27.36674,0 49.55187,22.18513 49.55187,49.55186 z"
         inkscape:connector-curvature="0" />
      <path
         style="fill:#ffffff;fill-opacity:1;fill-rule:nonzero;stroke:#ffffff;stroke-width:0.96808510999999997;stroke-miterlimit:4;stroke-opacity:1;stroke-dasharray:none"
         d="m 37.298358,133.88935 c -1.849861,-0.97477 -3.37265,-2.34935 -4.668464,-4.2141 l -0.928468,-1.33611 1.316925,-3.02027 c 1.896055,-4.34845 8.346307,-20.67422 8.346307,-21.12473 0,-0.20929 -0.366693,-0.47257 -0.814873,-0.58505 -0.812511,-0.20393 -3.380162,-2.30408 -3.380162,-2.76473 0,-0.22045 1.280006,-0.62653 5.049221,-1.601848 l 1.338228,-0.346278 1.513366,-4.11087 c 2.233777,-6.067777 3.34736,-9.545015 4.184268,-13.065658 l 0.747916,-3.146277 -1.040746,0 c -1.665418,0 -4.059138,-0.858418 -5.055455,-1.812951 -1.014946,-0.97238 -1.428004,-2.468376 -1.125483,-4.076233 l 0.197325,-1.048759 8.793375,-0.02787 c 5.631595,-0.01785 10.881905,-0.227267 14.601885,-0.582417 3.194681,-0.304999 7.223616,-0.640261 8.953187,-0.745026 l 3.144676,-0.190483 1.107902,1.17472 c 0.609349,0.646097 1.392868,1.937785 1.741159,2.870418 l 0.633251,1.695697 -7.144697,0.186581 c -3.929584,0.102619 -8.541257,0.377652 -10.248165,0.611183 l -3.103469,0.424603 -1.181925,2.188252 c -1.296549,2.400471 -8.301793,17.793525 -8.161516,17.933802 0.04798,0.04798 1.533466,-0.115472 3.301078,-0.36323 1.767611,-0.247757 4.665966,-0.541849 6.440789,-0.653537 3.568087,-0.224536 4.8408,0.151736 6.036017,1.784522 0.682403,0.93223 1.067678,2.836619 0.794656,3.927929 -0.184091,0.73583 -0.230388,0.74254 -4.442152,0.64433 -3.973501,-0.0927 -7.130429,0.20607 -13.392797,1.26727 l -1.968814,0.33363 -1.819032,4.57364 c -3.174303,7.98124 -5.981092,17.06025 -7.175186,23.20928 -0.301574,1.55297 -0.65203,2.82359 -0.77879,2.82359 -0.12676,0 -0.941862,-0.37486 -1.811337,-0.83302 l 0,0 z"
         id="path3782"
         inkscape:connector-curvature="0"
         transform="matrix(0.4955187,0,0,0.49551865,589.20935,614.49954)" />
      <path
         style="fill:#ffffff;fill-opacity:1;fill-rule:nonzero;stroke:#ffffff;stroke-width:0.96808510999999997;stroke-miterlimit:4;stroke-opacity:1;stroke-dasharray:none"
         d="m 95.884165,130.41052 c -1.574544,-0.42466 -3.856387,-1.69528 -3.856387,-2.1474 0,-0.67373 3.492866,-10.24932 5.208272,-14.27832 1.040061,-2.4428 1.891019,-4.58106 1.891019,-4.75168 0,-0.18286 -0.430592,-0.21417 -1.048759,-0.0763 -0.576817,0.12868 -3.735195,0.23396 -7.018617,0.23396 -4.715715,0 -6.410503,-0.12038 -8.067376,-0.57299 -2.565475,-0.70081 -4.967175,-1.8438 -6.404373,-3.0479 l -1.079906,-0.90476 1.886643,-2.25715 c 6.210634,-7.430302 12.465538,-17.080124 17.07166,-26.33749 l 1.868368,-3.755037 1.739162,0.598359 c 3.009209,1.035319 7.507099,3.510025 7.507099,4.130349 0,0.132159 -2.65013,3.363555 -5.889185,7.18088 -10.27436,12.10866 -16.02724,19.490259 -15.539385,19.938809 0.520166,0.47825 3.45973,1.2961 5.871182,1.63349 1.340137,0.1875 4.151213,0.23804 6.533449,0.11747 l 4.181259,-0.21162 7.81699,-15.638506 c 4.29934,-8.601178 8.01086,-15.712905 8.24783,-15.803837 1.0657,-0.40895 6.90697,2.725082 7.38089,3.960087 0.0979,0.255124 -0.47119,1.373984 -1.26465,2.486355 -2.07716,2.912056 -5.71519,8.728916 -8.0814,12.921395 -3.02577,5.361091 -5.7836,10.591616 -5.65324,10.721986 0.063,0.063 1.11493,-0.0952 2.33764,-0.35149 2.16782,-0.45441 2.87625,-0.40611 2.26583,0.15448 -0.16565,0.15213 -1.53549,0.73906 -3.04409,1.30429 l -2.74291,1.0277 -1.41286,3.12738 c -2.45131,5.42603 -4.25589,10.34634 -5.78631,15.77679 l -1.482437,5.26017 -0.983663,-0.0218 c -0.541015,-0.012 -1.6443,-0.19995 -2.451745,-0.41772 l 0,0 z"
         id="path3784"
         inkscape:connector-curvature="0"
         transform="matrix(0.4955187,0,0,0.49551865,589.20935,614.49954)" />
      <path
         style="fill:#ffffff;fill-opacity:1;fill-rule:nonzero;stroke:#ffffff;stroke-width:0.96808510999999997;stroke-miterlimit:4;stroke-opacity:1;stroke-dasharray:none"
         d="m 127.04019,134.13465 c -1.08503,-0.70349 -3.18773,-2.86739 -4.44598,-4.57541 l -0.83204,-1.12944 1.77391,-4.03368 c 0.97565,-2.21853 3.23075,-7.73661 5.01133,-12.26241 1.78058,-4.5258 3.29377,-8.32133 3.36264,-8.43451 0.0689,-0.11318 -0.66847,-0.59411 -1.63853,-1.06871 -0.97006,-0.47461 -2.07004,-1.25231 -2.4444,-1.72823 l -0.68065,-0.8653 0.91495,-0.382656 c 0.50322,-0.210461 1.93143,-0.628601 3.1738,-0.929199 1.24238,-0.300599 2.42226,-0.710225 2.62196,-0.91028 0.94953,-0.95123 5.92946,-16.587635 5.92946,-18.617814 0,-0.463423 -0.22792,-0.625402 -0.88741,-0.630669 -1.28701,-0.01028 -3.41022,-1.063438 -4.2204,-2.093408 -0.49732,-0.632249 -0.7007,-1.338806 -0.7007,-2.434361 0,-2.561425 -0.44646,-2.415368 7.02182,-2.297107 6.60401,0.104576 12.09903,-0.17399 21.50123,-1.089989 2.64273,-0.257465 5.28172,-0.468118 5.86442,-0.468118 1.8304,0 3.88264,2.298384 4.46612,5.001773 l 0.20894,0.968085 -4.96583,-0.1088 c -3.19174,-0.06993 -6.62443,0.07958 -9.60839,0.418488 -7.61508,0.864895 -6.78518,0.528485 -8.2762,3.354851 -1.88579,3.574688 -7.58403,16.20408 -7.39596,16.392154 0.0878,0.08784 2.03044,-0.0689 4.31689,-0.348315 5.57514,-0.681304 8.04892,-0.659324 9.46065,0.08406 1.40209,0.738308 2.25267,2.349738 2.25333,4.268905 l 5e-4,1.4727 -5.08245,0.0559 c -3.45213,0.038 -6.56768,0.29013 -9.71262,0.78617 l -4.63017,0.73029 -2.06843,5.13093 c -2.65949,6.59712 -5.3979,14.78495 -6.09057,18.21081 -0.29906,1.47909 -0.48624,2.74677 -0.41595,2.81705 0.0703,0.0703 1.93417,-0.22542 4.14195,-0.65714 5.16765,-1.01051 14.21115,-2.30316 19.2906,-2.75735 3.70832,-0.33158 4.01344,-0.31581 4.41281,0.22811 0.70847,0.96489 1.44559,3.62604 1.44585,5.21979 l 2.4e-4,1.49574 -6.97955,-0.10894 c -7.21051,-0.11254 -13.0843,0.23274 -18.67518,1.0978 -5.66631,0.87673 -6.34747,0.89492 -7.42199,0.19825 l 0,0 z"
         id="path3786"
         inkscape:connector-curvature="0"
         transform="matrix(0.4955187,0,0,0.49551865,589.20935,614.49954)" />
    </g>
  </g>
</svg>
