<?xml version="1.0" standalone="no"?>
<!DOCTYPE svg PUBLIC "-//W3C//DTD SVG 20010904//EN"
 "http://www.w3.org/TR/2001/REC-SVG-20010904/DTD/svg10.dtd">
<svg version="1.0" xmlns="http://www.w3.org/2000/svg"
 width="800.000000pt" height="520.000000pt" viewBox="0 0 800.000000 520.000000"
 preserveAspectRatio="xMidYMid meet">
<metadata>
Created by potrace 1.12, written by Peter Selinger 2001-2015
</metadata>
<g transform="translate(0.000000,520.000000) scale(0.100000,-0.100000)"
fill="#000000" stroke="none">
<path d="M995 5193 c-11 -3 -29 -13 -40 -23 -22 -19 -121 -70 -137 -70 -21 0
-68 -42 -68 -62 0 -11 -16 -36 -36 -56 -53 -53 -60 -87 -28 -134 27 -38 94
-78 131 -78 12 0 39 -20 63 -46 30 -33 53 -48 74 -50 17 -2 38 -7 46 -11 8 -3
36 -7 61 -8 25 -1 59 -8 75 -16 27 -14 32 -14 58 2 56 34 117 92 111 107 -4
10 0 13 15 9 19 -5 20 0 20 62 0 63 12 104 50 173 13 22 13 68 1 68 -5 0 -12
13 -16 29 -6 29 -53 73 -81 77 -8 1 -25 9 -37 17 -14 9 -30 11 -42 7 -11 -5
-41 -6 -67 -3 -38 4 -48 1 -48 -11 0 -26 -17 -27 -48 -1 -16 14 -31 24 -33 24
-2 -1 -13 -3 -24 -6z m43 -52 c30 -20 70 -21 82 -2 13 22 116 19 163 -4 22
-11 44 -27 48 -35 39 -76 38 -100 -5 -165 -12 -18 -21 -52 -23 -84 -1 -30 -9
-61 -18 -71 -8 -9 -15 -21 -15 -27 0 -9 -66 -68 -97 -87 -7 -4 -23 -2 -35 5
-12 7 -49 16 -83 20 -99 13 -118 20 -155 59 -23 24 -54 43 -90 54 -104 33
-140 99 -82 148 16 13 37 41 48 63 10 21 26 42 34 46 8 3 43 19 78 35 34 15
70 36 79 46 21 23 38 23 71 -1z"/>
<path d="M218 4843 c-9 -10 -19 -28 -22 -40 -4 -12 -20 -28 -36 -35 -17 -7
-30 -16 -30 -20 0 -5 -8 -8 -18 -8 -21 0 -82 -62 -82 -83 0 -7 -7 -22 -15 -33
-22 -29 -18 -65 12 -96 35 -37 51 -35 59 6 3 19 15 42 25 52 10 9 19 23 19 30
0 16 31 34 60 34 11 0 32 7 45 16 22 14 24 21 19 54 -5 30 -2 45 15 68 27 39
27 50 -5 62 -32 12 -28 13 -46 -7z"/>
<path d="M3269 4346 c-19 -11 -45 -34 -59 -51 -13 -16 -39 -45 -57 -63 -18
-19 -33 -38 -33 -42 0 -14 -37 -22 -93 -20 -28 2 -76 -1 -105 -5 l-53 -8 30
-31 c25 -26 31 -40 31 -77 0 -38 5 -48 34 -73 19 -16 38 -42 41 -58 4 -16 17
-35 29 -44 13 -8 31 -33 41 -57 38 -92 45 -107 52 -107 29 0 178 31 187 39 7
6 16 7 22 2 17 -17 52 -16 72 2 20 18 20 18 27 -2 3 -12 11 -21 16 -21 6 0 7
5 3 12 -4 7 -3 8 4 4 6 -4 9 -13 6 -20 -3 -8 4 -16 20 -20 14 -3 33 -17 42
-31 19 -29 30 -30 70 -11 48 23 94 28 94 11 0 -8 6 -15 14 -15 18 0 86 60 86
76 0 6 -16 19 -36 29 -35 17 -58 53 -48 79 5 14 -20 46 -37 46 -5 0 -9 14 -9
30 0 17 5 30 10 30 6 0 10 4 10 9 0 4 -17 7 -37 6 -50 -3 -51 -3 -31 -19 15
-11 15 -16 5 -30 -13 -18 -15 -17 -86 59 -24 26 -35 62 -21 70 5 3 10 16 10
28 0 26 -28 70 -39 63 -4 -3 -16 9 -26 27 -10 18 -27 42 -37 54 -11 12 -17 26
-13 32 9 15 -60 107 -84 114 -10 2 -34 -5 -52 -17z m79 -51 c12 -19 22 -41 22
-49 0 -7 8 -24 19 -37 10 -13 28 -43 40 -66 12 -24 28 -43 36 -43 20 0 28 -19
15 -35 -8 -9 -10 -28 -5 -51 8 -47 106 -148 135 -139 25 8 60 -15 60 -40 0
-29 35 -82 59 -90 12 -3 21 -11 21 -16 0 -11 1 -10 -71 -14 -30 -1 -69 -10
-85 -18 -29 -15 -31 -15 -62 17 -18 18 -32 38 -32 43 0 5 -15 18 -33 28 -31
16 -35 16 -65 1 -36 -19 -54 -21 -31 -3 25 19 30 66 8 88 -35 35 -144 16 -155
-27 -8 -30 19 -64 50 -64 17 -1 18 -2 6 -9 -21 -12 -140 -29 -145 -21 -2 3
-13 32 -25 63 -12 31 -32 65 -44 75 -13 10 -27 29 -31 42 -4 14 -23 42 -41 62
-26 29 -33 46 -32 73 1 20 -4 41 -10 47 -24 24 -10 29 73 27 l85 -2 48 49 c26
27 55 62 65 77 18 27 72 67 92 67 6 0 20 -16 33 -35z"/>
<path d="M4367 3575 c5 -29 1 -38 -25 -62 -29 -27 -62 -82 -62 -102 0 -18 83
-22 195 -11 159 15 183 13 235 -19 8 -6 42 -17 75 -26 33 -9 79 -22 102 -29
24 -7 45 -11 48 -8 3 3 12 7 21 8 61 9 170 88 200 146 19 36 18 38 -11 38 -14
0 -25 5 -25 10 0 7 -22 8 -62 5 -196 -19 -229 -15 -251 31 -20 40 -42 44 -51
8 -7 -25 -8 -26 -69 -19 -34 4 -78 11 -97 16 -19 5 -55 9 -79 9 -25 0 -52 6
-60 14 -9 7 -33 16 -53 19 l-36 5 5 -33z"/>
<path d="M5301 3303 c-30 -6 -72 -47 -96 -93 -14 -26 -16 -47 -11 -93 5 -52
11 -66 46 -103 22 -24 40 -48 40 -54 0 -5 11 -10 24 -10 13 0 29 -7 36 -15 7
-8 21 -15 31 -15 11 0 28 -5 39 -12 15 -10 22 -9 38 5 44 40 74 10 91 -88 7
-39 11 -89 10 -110 -2 -49 15 -95 36 -95 8 0 15 -6 15 -14 0 -16 63 -27 83
-14 6 4 31 8 54 8 28 0 64 12 108 34 59 30 73 34 121 29 40 -4 59 -2 72 9 20
18 50 31 74 33 10 1 27 14 39 29 11 14 26 26 34 26 20 0 45 45 51 94 6 40 4
47 -21 70 -15 14 -43 30 -63 37 -21 6 -41 15 -46 20 -6 5 -23 9 -38 9 -21 0
-31 6 -38 25 -6 16 -17 25 -30 25 -12 0 -27 6 -35 13 -53 44 -85 77 -85 85 0
12 -85 32 -132 32 -17 0 -52 -12 -77 -27 -48 -28 -161 -57 -161 -41 0 5 -8 18
-19 29 -10 11 -27 36 -37 56 -25 47 -65 93 -82 93 -7 0 -15 7 -18 15 -6 15
-10 16 -53 8z"/>
<path d="M4735 3143 c-45 -9 -76 -27 -81 -49 -8 -30 -1 -40 40 -59 38 -18 56
-51 56 -101 0 -20 7 -52 17 -71 l16 -35 59 5 c32 2 69 12 83 21 13 9 31 16 39
16 8 0 25 19 39 42 32 54 24 79 -46 145 -63 60 -85 73 -140 79 -23 3 -46 6
-52 7 -5 2 -19 2 -30 0z"/>
<path d="M5330 2615 c-7 -8 -19 -15 -26 -15 -8 0 -14 -4 -14 -8 0 -5 -17 -16
-37 -24 -22 -8 -44 -27 -53 -42 -14 -26 -13 -29 9 -47 13 -10 27 -16 33 -13 5
3 19 7 31 9 12 2 34 6 50 9 18 4 27 2 27 -6 0 -9 3 -9 12 0 7 7 21 12 33 12
21 0 45 17 45 32 0 4 -7 8 -16 8 -13 0 -15 7 -10 34 5 24 2 39 -9 50 -21 20
-59 21 -75 1z"/>
<path d="M6387 2100 c-24 -22 -29 -33 -29 -75 0 -28 2 -59 4 -70 14 -68 21
-95 27 -95 3 0 15 -16 25 -35 11 -19 22 -35 26 -35 4 0 12 -11 18 -25 20 -44
13 -105 -12 -105 -13 0 -116 -152 -116 -170 0 -6 -12 -10 -27 -10 -21 0 -43
-17 -94 -69 l-66 -70 3 -62 c2 -44 7 -65 18 -71 9 -5 16 -20 16 -34 0 -17 8
-28 26 -36 31 -14 51 -59 70 -156 16 -84 20 -92 40 -92 8 0 14 -10 14 -25 0
-14 6 -41 14 -60 8 -18 12 -36 9 -38 -2 -3 6 -25 18 -48 19 -39 21 -53 16
-134 -4 -49 -13 -128 -22 -173 -15 -79 -13 -140 5 -152 4 -3 16 -21 27 -40 15
-27 30 -38 68 -48 26 -8 70 -29 96 -48 27 -19 52 -34 57 -34 20 0 82 -53 82
-70 0 -11 5 -20 11 -20 17 0 113 100 135 140 10 19 24 42 30 50 6 8 14 30 17
48 8 41 75 110 115 118 16 3 39 19 51 34 11 16 44 39 73 53 29 14 73 44 98 67
55 52 88 63 146 48 34 -9 55 -9 96 1 56 15 138 57 138 72 0 5 12 9 26 9 33 0
134 61 160 95 10 15 52 52 92 82 76 59 92 78 92 112 0 10 6 21 13 24 19 7 0
22 -73 58 -73 36 -140 86 -140 105 0 6 -9 14 -20 17 -17 4 -20 14 -20 57 0 53
-22 109 -43 111 -6 0 -22 2 -35 5 -12 2 -34 -3 -48 -12 -13 -9 -27 -14 -31
-11 -3 3 -6 50 -7 104 l-1 98 -40 52 c-22 28 -45 52 -52 52 -7 1 -16 7 -20 15
-10 17 -65 58 -110 82 -18 9 -33 20 -33 24 0 4 -20 15 -45 24 -25 10 -45 21
-45 26 0 5 -15 11 -32 15 -18 4 -49 17 -68 29 -53 33 -77 43 -178 76 -76 25
-97 28 -114 19 -19 -10 -24 -9 -36 10 -8 11 -21 21 -29 21 -7 0 -25 11 -39 24
-15 13 -46 33 -70 45 -24 13 -44 28 -44 34 0 17 -62 57 -88 57 -12 0 -22 5
-22 10 0 6 -9 10 -19 10 -11 0 -22 4 -26 9 -10 17 -49 7 -78 -19z m116 -31
c29 -12 63 -34 77 -49 14 -16 48 -40 75 -55 28 -14 75 -44 105 -65 44 -32 61
-39 85 -34 38 7 200 -45 253 -81 20 -14 41 -25 46 -25 17 0 139 -61 171 -86
18 -13 35 -24 40 -24 11 0 118 -91 129 -109 5 -9 20 -26 34 -40 22 -22 24 -33
26 -122 3 -133 8 -138 110 -113 39 9 56 -15 56 -81 0 -50 2 -54 56 -106 31
-30 84 -68 118 -84 86 -43 87 -66 9 -131 -31 -27 -82 -72 -113 -100 -64 -59
-119 -94 -147 -94 -10 0 -37 -13 -60 -30 -56 -42 -155 -66 -203 -50 -54 18
-106 0 -159 -54 -24 -24 -62 -52 -85 -62 -22 -10 -57 -32 -76 -50 -19 -17 -48
-34 -63 -38 -41 -10 -115 -93 -122 -138 -4 -21 -10 -38 -15 -38 -4 0 -13 -14
-21 -32 -7 -17 -26 -46 -43 -64 -17 -18 -37 -40 -44 -49 -12 -14 -15 -14 -25
-1 -7 8 -32 26 -57 39 -78 41 -110 62 -110 69 0 4 -24 14 -53 23 -47 13 -58
22 -85 64 l-32 49 20 128 c28 181 26 234 -10 335 -17 46 -29 92 -27 101 3 10
-7 27 -24 42 -22 20 -29 35 -29 61 0 54 -49 171 -77 184 -13 6 -23 19 -23 29
0 9 -8 28 -17 42 -10 14 -16 39 -14 64 3 54 77 136 136 151 29 7 41 16 43 31
2 12 12 30 23 40 10 9 19 22 19 27 0 18 44 77 57 77 22 0 43 44 43 90 0 37 -8
57 -45 112 -47 70 -64 123 -65 199 0 74 25 84 113 48z"/>
</g>
</svg>
