   <svg xmlns="http://www.w3.org/2000/svg" xmlns:xlink="http://www.w3.org/1999/xlink" width="100%" height="100%" viewBox="0 0 400 400" preserveAspectRatio="none">

      <style type="text/css" >
      
      <![CDATA[
      .whiteStroke {
        stroke: rgba(253, 253, 253, .05);
        stroke-width: 2;
     
     }
     .bigStroke{
        stroke: rgba(253, 253, 253, .5);
        stroke-width: .25;
     }

      ]]>
    </style>

  
  <polygon points="0,50 200,250 0,100"
           style="fill:rgba(0,0, 0,.1);" />
  <polygon points="400,50 200,250 400,100"
           style="fill:rgba(0,0, 0,.1);" />
  <polygon points="400,100 200,250 400,140"
           style="fill:rgba(0,0, 0,.2);" />
  <polygon points="0,100 200,250 0,140"
           style="fill:rgba(0,0, 0,.2);" />
  <polygon points="0,140 200,250 0,180"
           style="fill:rgba(0,0, 0,.3);" />
  <polygon points="400,140 200,250 400,180"
           style="fill:rgba(0,0, 0,.3);" />
  <polygon points="0,180 200,250 0,220"
           style="fill:rgba(0,0, 0,.4);" />
  <polygon points="400,180 200,250 400,220"
           style="fill:rgba(0,0, 0,.4);" />
  <polygon points="0,220 200,250 0,260"
           style="fill:rgba(0,0, 0,.45);" />
  <polygon points="400,220 200,250 400,260"
           style="fill:rgba(0,0,0,.45);" />
  <polygon points="0,400 0,260  200,250 400,260 400,400 "
           style="fill:rgba(0,0, 0,.5);" />

 <!--  <polygon points=",0 200,300 0,100"
           style="fill:rgba(0,96, 161,.65);" />
  <polygon points="0,0 200,300 0,100"
           style="fill:rgba(0,96, 161,.95);" /> -->
   <!--  <line class="bigStroke" x1="35%" y1="0%" 
          x2="50%" y2="62.5%" />
    <line class="bigStroke" x1="65%" y1="0%" 
          x2="50%" y2="62.5%" />
    <line class="bigStroke" x1="25%" y1="0%" 
          x2="50%" y2="62.5%" />
    <line class="bigStroke" x1="75%" y1="0%" 
          x2="50%" y2="62.5%" />
    <line class="bigStroke" x1="15%" y1="0%" 
          x2="50%" y2="62.5%" />
    <line class="bigStroke" x1="85%" y1="0%" 
          x2="50%" y2="62.5%" />
    <line class="bigStroke" x1="5%" y1="0%" 
          x2="50%" y2="62.5%" />
    <line class="bigStroke" x1="95%" y1="0%" 
          x2="50%" y2="62.5%" /> -->
    <line class="whiteStroke" x1="0" y1="12.5%" 
          x2="50%" y2="62.5%" />
    <line class="whiteStroke" x1="100%" y1="12.5%" 
          x2="50%" y2="62.5%" />
    <line class="whiteStroke" x1="0" y1="25%" 
          x2="50%" y2="62.5%" />
    <line class="whiteStroke" x1="100%" y1="25%" 
          x2="50%" y2="62.5%" />
    <line class="whiteStroke" x1="0" y1="35%" 
          x2="50%" y2="62.5%" />
    <line class="whiteStroke" x1="100%" y1="35%" 
          x2="50%" y2="62.5%" />
    <line class="whiteStroke" x1="0" y1="45%" 
          x2="50%" y2="62.5%" />
    <line class="whiteStroke" x1="100%" y1="45%" 
          x2="50%" y2="62.5%" />
    <line class="whiteStroke" x1="0" y1="55%" 
          x2="50%" y2="62.5%" />
    <line class="whiteStroke" x1="100%" y1="55%" 
          x2="50%" y2="62.5%" />
    <line class="whiteStroke" x1="0" y1="65%" 
          x2="50%" y2="62.5%" />
    <line class="whiteStroke" x1="100%" y1="65%" 
          x2="50%" y2="62.5%" />
    <line class="whiteStroke" x1="100%" y1="75%" 
          x2="50%" y2="62.5%" />
    <line class="whiteStroke" x1="0" y1="75%" 
          x2="50%" y2="62.5%" />
    <line class="whiteStroke" x1="100%" y1="85%" 
          x2="50%" y2="62.5%" />
    <line class="whiteStroke" x1="0" y1="85%" 
          x2="50%" y2="62.5%" />
    <line class="whiteStroke" x1="100%" y1="95%" 
          x2="50%" y2="62.5%" />
    <line class="whiteStroke" x1="0" y1="95%" 
          x2="50%" y2="62.5%" />

  
</svg>