<?xml version="1.0" encoding="UTF-8" standalone="no"?>
<!-- Created with Inkscape (http://www.inkscape.org/) -->

<svg
   xmlns:dc="http://purl.org/dc/elements/1.1/"
   xmlns:cc="http://creativecommons.org/ns#"
   xmlns:rdf="http://www.w3.org/1999/02/22-rdf-syntax-ns#"
   xmlns:svg="http://www.w3.org/2000/svg"
   xmlns="http://www.w3.org/2000/svg"
   xmlns:sodipodi="http://sodipodi.sourceforge.net/DTD/sodipodi-0.dtd"
   xmlns:inkscape="http://www.inkscape.org/namespaces/inkscape"
   width="159.99998"
   height="117.14881"
   id="svg3933"
   version="1.1"
   inkscape:version="0.48.4 r9939"
   sodipodi:docname="modal-email.svg">
  <defs
     id="defs3935" />
  <sodipodi:namedview
     id="base"
     pagecolor="#ffffff"
     bordercolor="#666666"
     borderopacity="1.0"
     inkscape:pageopacity="0.0"
     inkscape:pageshadow="2"
     inkscape:zoom="0.35"
     inkscape:cx="-67.857149"
     inkscape:cy="-367.13988"
     inkscape:document-units="px"
     inkscape:current-layer="layer1"
     showgrid="false"
     fit-margin-left="5"
     fit-margin-right="5"
     fit-margin-bottom="5"
     fit-margin-top="5"
     inkscape:window-width="1600"
     inkscape:window-height="845"
     inkscape:window-x="0"
     inkscape:window-y="30"
     inkscape:window-maximized="1" />
  <metadata
     id="metadata3938">
    <rdf:RDF>
      <cc:Work
         rdf:about="">
        <dc:format>image/svg+xml</dc:format>
        <dc:type
           rdf:resource="http://purl.org/dc/dcmitype/StillImage" />
        <dc:title></dc:title>
      </cc:Work>
    </rdf:RDF>
  </metadata>
  <g
     inkscape:label="Layer 1"
     inkscape:groupmode="layer"
     id="layer1"
     transform="translate(-11.428577,-48.073495)">
    <path
       style="fill:#00426e;fill-opacity:1"
       d="m 49.747766,160.16414 c -11.056308,-0.0356 -19.997767,-0.16315 -20.277673,-0.28936 -0.275379,-0.12418 -1.007627,-0.3637 -1.627225,-0.53229 -4.455437,-1.21223 -8.903872,-5.43474 -10.281482,-9.75932 -0.285619,-0.8966 -0.651996,-1.90071 -0.814178,-2.23135 -0.42201,-0.86035 -0.426285,-80.537325 -0.0041,-81.410415 0.159776,-0.33064 0.477657,-1.22076 0.706388,-1.97805 1.290097,-4.27122 5.601091,-8.58051 9.892962,-9.88904 0.757283,-0.23089 1.647398,-0.55053 1.978028,-0.7103 0.451177,-0.21804 15.94041,-0.29052 62.084731,-0.29052 59.463003,0 61.532943,0.0155 62.985623,0.47037 2.89879,0.90777 5.38002,2.38076 7.40871,4.39821 1.87731,1.8669 2.09772,2.22337 4.32698,6.99803 0.40911,0.87622 0.39951,81.564835 -0.01,82.411765 -0.15978,0.33062 -0.47765,1.22071 -0.70638,1.97799 -0.93968,3.11106 -3.77921,6.69283 -6.70498,8.45761 -0.7497,0.45222 -2.30879,1.18387 -3.46465,1.6259 l -2.10158,0.8037 -41.80707,0.005 c -22.993874,0.003 -50.706692,-0.0233 -61.584039,-0.0583 z M 142.249,152.33562 c 0.29816,-0.19137 -3.27195,-3.88957 -17.33133,-17.95314 l -17.70686,-17.71212 -7.07697,7.03875 c -7.548531,7.50775 -7.911321,7.77876 -9.374354,7.00271 -0.388695,-0.20617 -3.86027,-3.5366 -7.714606,-7.40096 -3.854336,-3.86435 -7.119407,-7.02609 -7.255709,-7.02609 -0.29168,0 -35.095324,34.71447 -35.456771,35.36593 -0.135265,0.2438 -0.177754,0.55359 -0.09442,0.68843 0.205899,0.33315 101.49193,0.32967 102.01102,-0.004 z m 13.41828,-1.26882 c 0.92589,-0.57222 1.90949,-1.92839 2.53074,-3.48933 0.42337,-1.06374 0.45213,-3.36981 0.51612,-41.37482 0.0641,-38.068205 0.0441,-40.257375 -0.3684,-40.415665 -0.33926,-0.13019 -5.42858,4.86188 -22.91143,22.47364 -12.3614,12.452545 -22.47528,22.811105 -22.47528,23.019015 0,0.20791 9.10372,9.47915 20.23047,20.60276 20.22252,20.21677 20.23077,20.22461 20.96333,19.9461 0.40307,-0.15326 1.08457,-0.49601 1.51445,-0.7617 z M 49.809775,131.4936 c 11.187456,-11.18682 20.340833,-20.50916 20.340833,-20.7163 0,-0.61227 -44.502924,-44.969225 -44.809569,-44.662585 -0.179186,0.17919 -0.23979,13.01943 -0.193749,41.049515 l 0.06702,40.78876 0.743777,1.34288 c 0.770306,1.39075 2.128854,2.53741 3.006301,2.53741 0.334837,0 7.347328,-6.84236 20.845414,-20.33968 z m 43.791019,-12.19402 c 1.26159,-0.99237 57.410166,-57.537745 57.410166,-57.815875 0,-0.1978 -16.51638,-0.27411 -59.330976,-0.27411 -47.338919,0 -59.330961,0.0634 -59.330961,0.31334 0,0.34584 57.401751,57.786565 58.204423,58.243965 0.708165,0.40352 2.238623,0.16882 3.047348,-0.46732 z"
       id="path3127"
       inkscape:connector-curvature="0" />
  </g>
</svg>
