<?xml version="1.0" encoding="UTF-8" standalone="no"?>
<!-- Created with Inkscape (http://www.inkscape.org/) -->

<svg
   xmlns:dc="http://purl.org/dc/elements/1.1/"
   xmlns:cc="http://creativecommons.org/ns#"
   xmlns:rdf="http://www.w3.org/1999/02/22-rdf-syntax-ns#"
   xmlns:svg="http://www.w3.org/2000/svg"
   xmlns="http://www.w3.org/2000/svg"
   xmlns:sodipodi="http://sodipodi.sourceforge.net/DTD/sodipodi-0.dtd"
   xmlns:inkscape="http://www.inkscape.org/namespaces/inkscape"
   width="350"
   height="250"
   id="svg6653"
   version="1.1"
   inkscape:version="0.48.4 r9939"
   sodipodi:docname="New document 30">
  <defs
     id="defs6655" />
  <sodipodi:namedview
     id="base"
     pagecolor="#ffffff"
     bordercolor="#666666"
     borderopacity="1.0"
     inkscape:pageopacity="0.0"
     inkscape:pageshadow="2"
     inkscape:zoom="0.35"
     inkscape:cx="-59.285714"
     inkscape:cy="520"
     inkscape:document-units="px"
     inkscape:current-layer="layer1"
     showgrid="false"
     inkscape:window-width="1600"
     inkscape:window-height="845"
     inkscape:window-x="0"
     inkscape:window-y="30"
     inkscape:window-maximized="1" />
  <metadata
     id="metadata6658">
    <rdf:RDF>
      <cc:Work
         rdf:about="">
        <dc:format>image/svg+xml</dc:format>
        <dc:type
           rdf:resource="http://purl.org/dc/dcmitype/StillImage" />
        <dc:title></dc:title>
      </cc:Work>
    </rdf:RDF>
  </metadata>
  <g
     inkscape:label="Layer 1"
     inkscape:groupmode="layer"
     id="layer1"
     transform="translate(0,-802.36218)">
    <path
       inkscape:connector-curvature="0"
       id="path4706"
       style="fill:#ffffff;fill-opacity:1;fill-rule:nonzero;stroke:none"
       d="m 297.4497,829.64929 c 2.44,2.44 2.44,6.3975 0,8.8375 l -26.5175,26.5175 c -2.44125,2.44 -6.3975,2.44 -8.83875,0 l 0,0 c -2.44,-2.44125 -2.44,-6.3975 0,-8.83875 l 26.5175,-26.51625 c 2.44125,-2.44125 6.3975,-2.44125 8.83875,0 l 0,0 m -3.9525,22.53875 c 0.98375,2.7025 -0.16625,5.6025 -2.57,6.4775 l -61.775,22.48375 c -2.4025,0.875 -5.1475,-0.6075 -6.13125,-3.31 l -0.7125,-1.95875 c -0.98375,-2.70125 0.165,-5.6025 2.56875,-6.4775 l 61.775,-22.48375 c 2.40375,-0.87375 5.14875,0.60875 6.13375,3.31125 l 0.71125,1.9575 m -116.35875,173.46876 0,-2.5 c 0,-3.4525 1.91125,-6.25 4.23625,-6.25 l 79.0275,0 c 2.325,0 4.23625,2.7975 4.23625,6.25 l 0,2.5 -87.5,0 m 87.475,-22.9763 c 0.3025,3.4388 -2.24125,6.47 -5.68,6.7713 l -199.239999,17.43 c -3.43875,0.3013 -6.47,-2.2425 -6.77,-5.68 l -2.17875,-24.90626 c -0.3025,-3.4375 2.2425,-6.46875 5.68125,-6.77 L 255.6647,972.09429 c 3.43875,-0.30125 6.47,2.2425 6.77,5.68125 l 2.17875,24.90496 M 274.7747,858.07804 c 1.62125,0.59125 2.09875,3.3675 1.0675,6.2 l -52.28875,143.65376 c -1.03125,2.8337 -3.18125,4.6537 -4.805,4.0625 l -5.8725,-2.1375 c -1.6225,-0.5913 -2.10125,-3.365 -1.06875,-6.2 l 52.28875,-143.65376 c 1.0325,-2.83375 3.1825,-4.6525 4.80375,-4.0625 l 5.875,2.1375" />
  </g>
</svg>
