<?xml version="1.0"?>
<svg width="640" height="480" xmlns="http://www.w3.org/2000/svg" xmlns:svg="http://www.w3.org/2000/svg" preserveAspectRatio="xMidYMid meet">
 <!-- Created with SVG-edit - http://svg-edit.googlecode.com/ -->
 <g>

  <polygon opacity="0.5" stroke="#ffffff" id="svg_21" stroke-width="1" points="499.7900186777115,242.00003576278687 0.21003210544586182,445.8673605918884 0.21003210544586182,38.13265371322632 499.7900186777115,242.00003576278687 " strokeWidth="1" strokecolor="#ffffff" fill="#007ed4" edge="157.901368" orient="x" sides="3" shape="regularPoly" cy="55.00001" cx="-85.999996"/>
 <!--  <polygon opacity="0.45" stroke="#ffffff" id="svg_22" stroke-width="1" points="413.78997802734375,238.70007801055908 0.8766803741455078,407.20070362091064 0.8766803741455078,70.1994218826294 413.78997802734375,238.70007801055908 " strokeWidth="1" strokecolor="#ffffff" fill="#007ed4" edge="157.901368" orient="x" sides="3" shape="regularPoly" cy="55.00001" cx="-85.999996"/>
  <polygon opacity="0.45" stroke="#ffffff" id="svg_23" stroke-width="1" points="333.12329864501953,241.31287574768066 0.21002197265625,377.1673069000244 0.21002197265625,105.45844459533691 333.12329864501953,241.31287574768066 " strokeWidth="1" strokecolor="#ffffff" fill="#007ed4" edge="157.901368" orient="x" sides="3" shape="regularPoly" cy="55.00001" cx="-85.999996"/>
  <polygon opacity="0.45" stroke="#ffffff" id="svg_24" stroke-width="1" points="235.7899627685547,240.38621520996094 0.21002197265625,336.5210876464844 0.21002197265625,144.25132751464844 235.7899627685547,240.38621520996094 " strokeWidth="1" strokecolor="#ffffff" fill="#007ed4" edge="157.901368" orient="x" sides="3" shape="regularPoly" cy="55.00001" cx="-85.999996"/>
    <polygon opacity="0.45" stroke="#ffffff" id="svg_20" stroke-width="1" points="637.7899606115793,239.70835876464844 0.8767080307006836,478.2423400878906 0.8767080307006836,1.174314260482788 637.7899606115793,239.70835876464844 " strokeWidth="1" strokecolor="#ffffff" fill="#007ed4" edge="157.901368" orient="x" sides="3" shape="regularPoly" cy="55.00001" cx="-85.999996"/>
    <polygon opacity="0.45" stroke="#ffffff" id="svg_20" stroke-width="1" points="640,239.70835876464844 0.8767080307006836,478.2423400878906 0,0 637.7899606115793,239.70835876464844 " strokeWidth="1" strokecolor="#ffffff" fill="#007ed4" edge="157.901368" orient="x" sides="3" shape="regularPoly" cy="55.00001" cx="-85.999996"/> -->
 </g>
</svg>